<svg width="24" height="24" viewBox="0 0 24 24" fill="none" xmlns="http://www.w3.org/2000/svg">
<path d="M23.25 5.5H0.75C0.551088 5.5 0.360322 5.42098 0.21967 5.28033C0.0790176 5.13968 0 4.94891 0 4.75C0 4.55109 0.0790176 4.36032 0.21967 4.21967C0.360322 4.07902 0.551088 4 0.75 4H23.25C23.4489 4 23.6397 4.07902 23.7803 4.21967C23.921 4.36032 24 4.55109 24 4.75C24 4.94891 23.921 5.13968 23.7803 5.28033C23.6397 5.42098 23.4489 5.5 23.25 5.5Z" fill="#262626"/>
<path d="M23.25 13H0.75C0.551088 13 0.360322 12.921 0.21967 12.7803C0.0790176 12.6397 0 12.4489 0 12.25C0 12.0511 0.0790176 11.8603 0.21967 11.7197C0.360322 11.579 0.551088 11.5 0.75 11.5H23.25C23.4489 11.5 23.6397 11.579 23.7803 11.7197C23.921 11.8603 24 12.0511 24 12.25C24 12.4489 23.921 12.6397 23.7803 12.7803C23.6397 12.921 23.4489 13 23.25 13Z" fill="#262626"/>
<path d="M23.25 20.5H0.75C0.551088 20.5 0.360322 20.421 0.21967 20.2803C0.0790176 20.1397 0 19.9489 0 19.75C0 19.5511 0.0790176 19.3603 0.21967 19.2197C0.360322 19.079 0.551088 19 0.75 19H23.25C23.4489 19 23.6397 19.079 23.7803 19.2197C23.921 19.3603 24 19.5511 24 19.75C24 19.9489 23.921 20.1397 23.7803 20.2803C23.6397 20.421 23.4489 20.5 23.25 20.5Z" fill="#262626"/>
</svg>
