<svg width="24" height="24" viewBox="0 0 24 24" fill="none" xmlns="http://www.w3.org/2000/svg">
<g clip-path="url(#clip0_71_1886)">
<path d="M16.995 11.7125C16.4325 11.3708 16.32 11.2375 16.302 11.2125C16.32 11.1167 16.5855 10.8417 16.815 10.5958C17.2605 10.1416 17.6745 9.6625 18.0615 9.1625C19.569 7.19582 18.3945 5.01668 17.5575 4.14168C17.4765 4.05 17.355 4 17.2245 4H15.798C13.593 4 12.513 4.93332 12 5.6875C11.4825 4.93332 10.407 4 8.202 4H6.77552C6.63153 4 6.49653 4.0625 6.41102 4.17082C6.32103 4.28332 4.26452 6.94164 5.92953 9.15832C6.31652 9.67082 6.73953 10.1625 7.19402 10.6291C7.419 10.8625 7.67103 11.1291 7.689 11.1958C7.67099 11.2416 7.554 11.375 7.0005 11.7125C4.3095 13.35 3 16.5167 3 21.3917C3 21.4792 3.03151 21.5625 3.08551 21.6334C3.15753 21.7292 5.00251 24 12 24C18.9975 24 20.8425 21.7292 20.9145 21.6333C20.9685 21.5625 21 21.4791 21 21.3916C21 16.5167 19.6905 13.35 16.995 11.7125ZM6.67203 8.68332C5.57853 7.23332 7.01852 4.83332 7.01852 4.83332H8.1885C11.1135 4.83332 11.55 6.70832 11.568 6.79164C11.568 6.79582 11.568 6.79582 11.5725 6.79996C11.5815 6.82914 11.5905 6.85414 11.6085 6.87914C11.6175 6.90414 11.631 6.92914 11.6445 6.95414C11.649 6.95832 11.6535 6.96246 11.658 6.96664C11.7255 7.04996 11.8245 7.10832 11.9325 7.12914H11.901C11.946 7.13746 11.9955 7.13746 12.0405 7.12914C12.045 7.12914 12.045 7.12496 12.0495 7.12496C12.0675 7.12078 12.09 7.11246 12.108 7.10414C12.144 7.09582 12.1845 7.07914 12.216 7.06246L12.2205 7.05828C12.2655 7.0291 12.306 6.9916 12.342 6.94578C12.3465 6.93746 12.3465 6.9291 12.3555 6.92078C12.3825 6.88328 12.4005 6.83746 12.414 6.7916C12.414 6.78742 12.414 6.78742 12.4185 6.78742C12.4366 6.70824 12.8775 4.79574 15.8565 4.79574H17.0175C17.0175 4.79574 18.597 7.04574 17.3415 8.67906C16.9725 9.15406 16.5765 9.60824 16.1535 10.0416C15.8565 10.3541 15.618 10.5999 15.501 10.8499C12.522 11.2874 9.60604 10.9916 8.50803 10.8457C8.39104 10.6124 8.16601 10.3749 7.88703 10.079C7.44153 9.63332 7.041 9.17082 6.67203 8.68332ZM12 23.1667C6.32103 23.1667 4.31401 21.6209 3.90003 21.2334C3.92703 16.75 5.10604 13.8625 7.49553 12.4084C7.95001 12.1334 8.25604 11.9125 8.42703 11.6792C9.65552 11.8375 10.893 11.9167 12.135 11.9209C13.2825 11.9209 14.4345 11.8417 15.5685 11.6792C15.7395 11.9125 16.0455 12.1334 16.5 12.4084C18.894 13.8625 20.073 16.75 20.1 21.2333C19.6815 21.625 17.67 23.1667 12 23.1667Z" fill="#262626" stroke="#262626" stroke-width="0.3"/>
</g>
<defs>
<clipPath id="clip0_71_1886">
<rect width="24" height="24" fill="white"/>
</clipPath>
</defs>
</svg>
