<svg width="24" height="24" viewBox="0 0 24 24" fill="none" xmlns="http://www.w3.org/2000/svg">
<g clip-path="url(#clip0_77_646)">
<path d="M19.9165 0.904171C18.7068 -0.303344 16.7479 -0.303344 15.5383 0.904171L14.4423 2.00612L2.77609 13.6662L2.7513 13.6912C2.7453 13.6972 2.7453 13.7036 2.7389 13.7036C2.72651 13.7222 2.70791 13.7406 2.69571 13.7591C2.69571 13.7653 2.68932 13.7653 2.68932 13.7715C2.67692 13.7901 2.67092 13.8025 2.65833 13.8211C2.65232 13.8273 2.65232 13.8333 2.64612 13.8397C2.63993 13.8583 2.63373 13.8707 2.62733 13.8893C2.62733 13.8953 2.62133 13.8953 2.62133 13.9017L0.0329398 21.6853C-0.0429899 21.9069 0.0147322 22.1523 0.181506 22.3167C0.298694 22.4324 0.456752 22.4971 0.621202 22.4965C0.688415 22.4953 0.755047 22.4849 0.819355 22.4655L8.59692 19.8709C8.60293 19.8709 8.60293 19.8709 8.60932 19.8649C8.62888 19.8591 8.64767 19.8508 8.66491 19.8399C8.66975 19.8393 8.67401 19.8372 8.6775 19.8339C8.6959 19.8215 8.7207 19.8089 8.73929 19.7965C8.75769 19.7843 8.77648 19.7657 8.79508 19.7533C8.80127 19.7469 8.80728 19.7469 8.80728 19.7409C8.81367 19.7347 8.82607 19.7287 8.83226 19.7161L21.5945 6.95395C22.802 5.7443 22.802 3.78543 21.5945 2.57598L19.9165 0.904171ZM8.39877 18.4157L4.08898 14.1061L14.8758 3.3192L19.1856 7.62879L8.39877 18.4157ZM3.48193 15.2516L7.24704 19.0165L1.59337 20.8989L3.48193 15.2516ZM20.7215 6.08696L20.065 6.7496L15.755 2.43962L16.4179 1.77717C17.1429 1.05274 18.3181 1.05274 19.0433 1.77717L20.7275 3.46138C21.4471 4.18968 21.4443 5.36214 20.7215 6.08696Z" fill="#262626"/>
</g>
<defs>
<clipPath id="clip0_77_646">
<rect width="24" height="24" fill="white"/>
</clipPath>
</defs>
</svg>
