<svg width="24" height="24" viewBox="0 0 24 24" fill="none" xmlns="http://www.w3.org/2000/svg">
<g clip-path="url(#clip0_5_1707)">
<path d="M22.568 8.12592C22.1012 8.05729 21.6557 7.88296 21.2647 7.61591C20.8737 7.34886 20.5472 6.99597 20.3096 6.58353C20.072 6.17108 19.9294 5.7097 19.8925 5.23374C19.8555 4.75778 19.9251 4.27951 20.096 3.83454C20.2047 3.54364 20.2207 3.22561 20.1418 2.92503C20.0629 2.62446 19.893 2.35641 19.656 2.15847C18.6096 1.26916 17.4186 0.570536 16.136 0.0937538C15.844 -0.0160546 15.5251 -0.0297743 15.2249 0.0545491C14.9247 0.138872 14.6584 0.316938 14.464 0.563376C14.1714 0.942033 13.7975 1.24829 13.3706 1.45891C12.9437 1.66953 12.475 1.77899 12 1.77899C11.5251 1.77899 11.0564 1.66953 10.6295 1.45891C10.2025 1.24829 9.8286 0.942033 9.53603 0.563376C9.34164 0.316938 9.07538 0.138872 8.77516 0.0545491C8.47494 -0.0297743 8.15609 -0.0160546 7.86403 0.0937538C6.67976 0.533938 5.5725 1.16261 4.58403 1.95605C4.33486 2.15569 4.1554 2.43083 4.0719 2.74117C3.98841 3.05151 4.00527 3.38076 4.12003 3.6807C4.30463 4.13744 4.38091 4.63161 4.34273 5.12357C4.30455 5.61554 4.15298 6.0916 3.90019 6.51356C3.6474 6.93553 3.30041 7.29166 2.88706 7.55339C2.47372 7.81511 2.00552 7.97515 1.52003 8.02066C1.20484 8.05477 0.908792 8.1904 0.675481 8.40759C0.442169 8.62478 0.28392 8.91205 0.224032 9.2271C0.0750706 9.9734 3.25711e-05 10.7329 3.25711e-05 11.4942C-0.0010623 12.1317 0.0497766 12.7681 0.152033 13.397C0.202924 13.7222 0.358229 14.0213 0.593936 14.2482C0.829643 14.475 1.13262 14.617 1.45603 14.6521C1.95219 14.6992 2.42997 14.8659 2.84939 15.1383C3.26882 15.4107 3.61768 15.7807 3.86677 16.2176C4.11587 16.6544 4.25796 17.1453 4.28114 17.6491C4.30433 18.153 4.20793 18.6551 4.00003 19.1135C3.86397 19.4116 3.83022 19.7472 3.90414 20.067C3.97806 20.3868 4.15541 20.6725 4.40803 20.8786C5.44812 21.7518 6.62769 22.4391 7.89603 22.9109C8.05822 22.9678 8.22839 22.9979 8.40003 23C8.63536 22.9995 8.86715 22.9419 9.07594 22.832C9.28473 22.7221 9.46445 22.5631 9.60003 22.3684C9.88516 21.948 10.2674 21.6043 10.7135 21.3673C11.1596 21.1302 11.6562 21.0069 12.16 21.0082C12.6482 21.0088 13.1295 21.1248 13.5656 21.3469C14.0017 21.569 14.3806 21.891 14.672 22.2875C14.8659 22.5512 15.1405 22.7426 15.453 22.832C15.7655 22.9213 16.0985 22.9035 16.4 22.7814C17.5598 22.309 18.6395 21.656 19.6 20.8462C19.8413 20.6443 20.0131 20.3701 20.0907 20.0631C20.1684 19.7562 20.1478 19.4322 20.032 19.1378C19.8439 18.6869 19.7618 18.198 19.7924 17.7095C19.8229 17.2211 19.9652 16.7465 20.2081 16.3232C20.4509 15.9 20.7876 15.5397 21.1916 15.2707C21.5956 15.0018 22.0559 14.8316 22.536 14.7735C22.8474 14.7299 23.1369 14.5872 23.3627 14.3659C23.5886 14.1446 23.7389 13.8563 23.792 13.5428C23.9205 12.8674 23.9901 12.1819 24 11.4942C24.0002 10.7689 23.9332 10.0451 23.8 9.33236C23.746 9.02573 23.5979 8.74413 23.3767 8.52755C23.1556 8.31097 22.8726 8.17044 22.568 8.12592ZM22.232 13.1784C21.5279 13.2825 20.8561 13.5461 20.2666 13.9496C19.6772 14.3531 19.1854 14.886 18.8278 15.5087C18.4702 16.1314 18.2561 16.8277 18.2014 17.5458C18.1467 18.2639 18.2529 18.9852 18.512 19.656C17.7187 20.3288 16.8284 20.8749 15.872 21.2754C15.4319 20.6965 14.8659 20.2282 14.218 19.9066C13.5701 19.585 12.8577 19.4189 12.136 19.4212C11.3935 19.4252 10.6623 19.6053 10.001 19.947C9.33975 20.2887 8.76676 20.7824 8.32803 21.3887C7.29205 20.9899 6.32531 20.4269 5.46403 19.7207C5.75587 19.0416 5.88687 18.3029 5.84659 17.5634C5.80631 16.824 5.59586 16.1043 5.23203 15.4617C4.86432 14.8122 4.35162 14.2586 3.73489 13.8453C3.11815 13.4319 2.41447 13.1703 1.68003 13.0812C1.61583 12.5549 1.5891 12.0245 1.60003 11.4942C1.60024 10.8666 1.65917 10.2403 1.77603 9.62385C2.49239 9.5389 3.17999 9.28892 3.78603 8.8931C4.39206 8.49729 4.90041 7.96616 5.27203 7.34052C5.64314 6.72125 5.86925 6.0242 5.93304 5.30281C5.99683 4.58141 5.8966 3.85481 5.64003 3.17869C6.45642 2.53049 7.36549 2.01175 8.33603 1.64027C8.78025 2.18924 9.33935 2.63154 9.97297 2.93525C10.6066 3.23896 11.2989 3.3965 12 3.3965C12.7011 3.3965 13.3935 3.23896 14.0271 2.93525C14.6607 2.63154 15.2198 2.18924 15.664 1.64027C16.7186 2.04355 17.6999 2.62085 18.568 3.34872C18.3308 4.00985 18.2402 4.71571 18.3028 5.41622C18.3653 6.11674 18.5794 6.79474 18.9298 7.40213C19.2803 8.00951 19.7585 8.5314 20.3306 8.93075C20.9027 9.33011 21.5545 9.59715 22.24 9.71292C22.3441 10.3009 22.3976 10.8969 22.4 11.4942C22.3978 12.0584 22.3523 12.6214 22.264 13.1784H22.232Z" fill="#262626"/>
<path d="M12 7C11.0111 7 10.0444 7.29325 9.22217 7.84265C8.39992 8.39206 7.75906 9.17295 7.38062 10.0866C7.00218 11.0002 6.90317 12.0055 7.09609 12.9755C7.28902 13.9454 7.76522 14.8363 8.46448 15.5355C9.16375 16.2348 10.0547 16.711 11.0246 16.9039C11.9945 17.0969 12.9998 16.9978 13.9134 16.6194C14.8271 16.241 15.608 15.6001 16.1574 14.7778C16.7068 13.9556 17 12.9889 17 12C17 10.6739 16.4732 9.40215 15.5356 8.46447C14.5979 7.52678 13.3261 7 12 7ZM12 15.3333C11.3407 15.3333 10.6963 15.1378 10.1481 14.7716C9.59995 14.4053 9.17271 13.8847 8.92042 13.2756C8.66813 12.6665 8.60212 11.9963 8.73073 11.3497C8.85935 10.7031 9.17682 10.1092 9.64299 9.64298C10.1092 9.1768 10.7031 8.85933 11.3497 8.73072C11.9963 8.6021 12.6665 8.66811 13.2756 8.9204C13.8847 9.17269 14.4053 9.59994 14.7716 10.1481C15.1379 10.6963 15.3333 11.3407 15.3333 12C15.3333 12.8841 14.9822 13.7319 14.357 14.357C13.7319 14.9821 12.8841 15.3333 12 15.3333Z" fill="#262626"/>
</g>
<defs>
<clipPath id="clip0_5_1707">
<rect width="24" height="24" fill="white"/>
</clipPath>
</defs>
</svg>
