<svg width="24" height="24" viewBox="0 0 24 24" fill="none" xmlns="http://www.w3.org/2000/svg">
<path d="M10.0861 1.50024C9.95847 1.51442 9.84684 1.59236 9.79018 1.70751L7.93788 5.40917C7.71474 5.85791 8.38783 6.19263 8.61098 5.74391L10.3571 2.25026H16.1322L11.3239 8.77756C11.1403 9.02524 11.3173 9.37637 11.6256 9.37597H17.9479L15.0717 12.8249C14.7504 13.2107 15.329 13.6926 15.6503 13.3069L19.0385 9.24046C19.241 8.99632 19.0678 8.62664 18.7506 8.62596H12.3646L17.1752 2.09787C17.3578 1.8503 17.1811 1.5003 16.8734 1.50024H10.0861ZM3.10463 2.88452L7.11098 7.06517L4.53871 12.2075C4.41421 12.4566 4.59498 12.7497 4.87343 12.7502H9.99746L7.14101 22.3918C7.02174 22.7836 7.52705 23.0557 7.78847 22.7405L14.4601 14.7336L20.3532 20.883C20.6984 21.2449 21.2411 20.7271 20.8959 20.3652L3.64443 2.36375C3.27692 1.96843 2.73143 2.47361 3.10463 2.88452ZM7.66176 7.6394L13.9372 14.188L8.37514 20.8611L10.8588 12.4814C10.9298 12.2409 10.7492 11.9998 10.4984 12.0002H5.4828L7.66176 7.6394Z" fill="white" stroke="white" stroke-width="0.5"/>
</svg>
