<svg width="24" height="24" viewBox="0 0 24 24" fill="none" xmlns="http://www.w3.org/2000/svg">
<g id="crop2 1" clip-path="url(#clip0_305_855)">
<g id="Group">
<path id="Vector" d="M22.875 18H20.25V6.375C20.25 5.67881 19.9734 5.01113 19.4812 4.51884C18.9889 4.02656 18.3212 3.75 17.625 3.75H6V1.125C6 0.826631 5.88147 0.540483 5.6705 0.329505C5.45952 0.118526 5.17337 0 4.875 0C4.57663 0 4.29048 0.118526 4.0795 0.329505C3.86853 0.540483 3.75 0.826631 3.75 1.125V3.75H1.125C0.826631 3.75 0.540483 3.86853 0.329505 4.0795C0.118526 4.29048 0 4.57663 0 4.875C0 5.17337 0.118526 5.45952 0.329505 5.6705C0.540483 5.88147 0.826631 6 1.125 6H3.75V17.625C3.75 18.3212 4.02656 18.9889 4.51884 19.4812C5.01113 19.9734 5.67881 20.25 6.375 20.25H18V22.875C18 23.1734 18.1185 23.4595 18.3295 23.6705C18.5405 23.8815 18.8266 24 19.125 24C19.4234 24 19.7095 23.8815 19.9205 23.6705C20.1315 23.4595 20.25 23.1734 20.25 22.875V20.25H22.875C23.1734 20.25 23.4595 20.1315 23.6705 19.9205C23.8815 19.7095 24 19.4234 24 19.125C24 18.8266 23.8815 18.5405 23.6705 18.3295C23.4595 18.1185 23.1734 18 22.875 18ZM6.375 18C6.27554 18 6.18016 17.9605 6.10983 17.8902C6.03951 17.8198 6 17.7245 6 17.625V6H17.625C17.7245 6 17.8198 6.03951 17.8902 6.10983C17.9605 6.18016 18 6.27554 18 6.375V18H6.375Z" fill="#262626" stroke="white" stroke-width="0.7"/>
</g>
</g>
<defs>
<clipPath id="clip0_305_855">
<rect width="24" height="24" fill="white"/>
</clipPath>
</defs>
</svg>
