<svg width="24" height="24" viewBox="0 0 24 24" fill="none" xmlns="http://www.w3.org/2000/svg">
<g clip-path="url(#clip0_300_775)">
<path d="M23.3817 6.58894L17.4167 0.623905C16.5944 -0.198376 15.2564 -0.198282 14.4343 0.623718L1.03127 14.0164C-0.343289 15.39 -0.343898 17.614 1.03029 18.9883L5.00707 22.965C6.37713 24.3351 8.60651 24.3353 9.97699 22.966C9.97699 22.966 23.1798 9.77334 23.3817 9.57155C24.2059 8.74725 24.2061 7.41328 23.3817 6.58894ZM8.98315 21.9714C8.16087 22.7931 6.8232 22.7928 6.0012 21.9708L2.02441 17.9941C1.19998 17.1696 1.20016 15.8352 2.02502 15.011L5.02334 12.015L11.9826 18.9743L8.98315 21.9714ZM12.9771 17.9805L6.01788 11.0212L12.9419 4.10259L19.9012 11.0618L12.9771 17.9805ZM22.3878 8.57709L20.8957 10.068L13.9365 3.1088L15.4284 1.61808C15.7026 1.34391 16.1485 1.34409 16.4225 1.61808L22.3876 7.58316C22.6626 7.85822 22.6619 8.30287 22.3878 8.57709Z" fill="#262626"/>
</g>
<defs>
<clipPath id="clip0_300_775">
<rect width="24" height="24" fill="white"/>
</clipPath>
</defs>
</svg>
