<svg width="16" height="16" viewBox="0 0 16 16" fill="none" xmlns="http://www.w3.org/2000/svg">
<rect width="16" height="16" fill="#F5F5F5"/>
<rect width="1080" height="2148" transform="translate(-248 -296)" fill="white"/>
<g clip-path="url(#clip0_0_1)">
<path d="M7.56137 3.65988L7.99999 4.46147L8.43862 3.6599C8.68343 3.21253 9.09122 2.61388 9.69004 2.15077L9.39145 1.76469L9.69004 2.15077C10.3061 1.6743 10.995 1.4375 11.75 1.4375C13.8593 1.4375 15.5 3.15639 15.5 5.54731C15.5 6.8131 14.9987 7.89931 14.044 9.05137C13.0766 10.2187 11.6825 11.4088 9.94579 12.8889L9.94578 12.8889L9.94519 12.8894C9.35923 13.3887 8.69294 13.9566 8 14.5626L7.99997 14.5626L8.00027 14.5628L8.00002 14.5626C8.00001 14.5625 8.00001 14.5625 8 14.5625C7.99999 14.5625 7.99999 14.5625 7.99998 14.5625C7.3074 13.9569 6.64136 13.3893 6.05593 12.8903L6.0546 12.8892L6.05459 12.8892C4.31765 11.409 2.92353 10.2188 1.95606 9.05141C1.00127 7.89931 0.5 6.81309 0.5 5.54731C0.5 3.15639 2.14075 1.4375 4.25 1.4375C5.00495 1.4375 5.69387 1.6743 6.30996 2.15077L6.60855 1.76469L6.30996 2.15077C6.90878 2.61389 7.31657 3.21251 7.56137 3.65988Z" fill="white" stroke="black"/>
</g>
<defs>
<clipPath id="clip0_0_1">
<rect width="16" height="16" fill="white"/>
</clipPath>
</defs>
</svg>
