<svg width="24" height="24" viewBox="0 0 24 24" fill="none" xmlns="http://www.w3.org/2000/svg">
<path d="M3.7014 20.696C3.52181 20.696 3.34221 20.6281 3.20533 20.4912C2.93156 20.2174 2.93156 19.7739 3.20533 19.5001L19.5002 3.20527C19.774 2.9315 20.2175 2.9315 20.4912 3.20527C20.765 3.47904 20.765 3.92255 20.4912 4.19632L4.19638 20.4912C4.06059 20.6281 3.881 20.696 3.7014 20.696Z" fill="#262626"/>
<path d="M19.9963 20.696C19.8167 20.696 19.6371 20.6281 19.5002 20.4912L3.20533 4.19632C2.93156 3.92255 2.93156 3.47904 3.20533 3.20527C3.4791 2.9315 3.92261 2.9315 4.19638 3.20527L20.4912 19.5001C20.765 19.7739 20.765 20.2174 20.4912 20.4912C20.3554 20.6281 20.1759 20.696 19.9963 20.696Z" fill="#262626"/>
</svg>
