<svg width="24" height="24" viewBox="0 0 24 24" fill="none" xmlns="http://www.w3.org/2000/svg">
<path d="M12 16.75C11.8011 16.75 11.6103 16.671 11.4697 16.5303C11.329 16.3897 11.25 16.1989 11.25 16V3C11.25 2.80109 11.329 2.61032 11.4697 2.46967C11.6103 2.32902 11.8011 2.25 12 2.25C12.1989 2.25 12.3897 2.32902 12.5303 2.46967C12.671 2.61032 12.75 2.80109 12.75 3V16C12.75 16.1989 12.671 16.3897 12.5303 16.5303C12.3897 16.671 12.1989 16.75 12 16.75Z" fill="#232323"/>
<path d="M12 17.448C11.5903 17.4484 11.1935 17.3047 10.879 17.042L5.52003 12.576C5.37267 12.4471 5.28156 12.2656 5.26618 12.0705C5.25079 11.8753 5.31235 11.6818 5.43769 11.5314C5.56304 11.381 5.74223 11.2855 5.937 11.2655C6.13176 11.2454 6.32665 11.3023 6.48003 11.424L11.84 15.89C11.885 15.9272 11.9416 15.9476 12 15.9476C12.0584 15.9476 12.115 15.9272 12.16 15.89L17.52 11.424C17.6734 11.3023 17.8683 11.2454 18.0631 11.2655C18.2578 11.2855 18.437 11.381 18.5624 11.5314C18.6877 11.6818 18.7493 11.8753 18.7339 12.0705C18.7185 12.2656 18.6274 12.4471 18.48 12.576L13.12 17.042C12.806 17.3048 12.4095 17.4485 12 17.448Z" fill="#232323"/>
<path d="M20 21.75H4C3.27082 21.7495 2.57165 21.4596 2.05604 20.944C1.54043 20.4283 1.25053 19.7292 1.25 19V16C1.25 15.8011 1.32902 15.6103 1.46967 15.4697C1.61032 15.329 1.80109 15.25 2 15.25C2.19891 15.25 2.38968 15.329 2.53033 15.4697C2.67098 15.6103 2.75 15.8011 2.75 16V19C2.75053 19.3314 2.88239 19.649 3.1167 19.8833C3.35101 20.1176 3.66864 20.2495 4 20.25H20C20.3314 20.2495 20.649 20.1176 20.8833 19.8833C21.1176 19.649 21.2495 19.3314 21.25 19V16C21.25 15.8011 21.329 15.6103 21.4697 15.4697C21.6103 15.329 21.8011 15.25 22 15.25C22.1989 15.25 22.3897 15.329 22.5303 15.4697C22.671 15.6103 22.75 15.8011 22.75 16V19C22.7495 19.7292 22.4596 20.4283 21.944 20.944C21.4283 21.4596 20.7292 21.7495 20 21.75Z" fill="#232323"/>
</svg>
