<svg width="24" height="24" viewBox="0 0 24 24" fill="none" xmlns="http://www.w3.org/2000/svg">
<rect width="24" height="24" fill="#F5F5F5"/>
<g id="Profile Setting" clip-path="url(#clip0_0_1)">
<rect width="360" height="800" transform="translate(-22 -753)" fill="white"/>
<g id="Group 2">
<rect id="Rectangle 15" x="-22" y="-53" width="177" height="177" fill="#DCDCDC"/>
</g>
<g id="bottom bar">
<g id="Rectangle 9">
<mask id="path-2-inside-1_0_1" fill="white">
<path d="M-22 -12H338V48H-22V-12Z"/>
</mask>
<path d="M-22 -12H338V48H-22V-12Z" fill="white"/>
<path d="M-22 -11H338V-13H-22V-11Z" fill="#EFEFEF" mask="url(#path-2-inside-1_0_1)"/>
</g>
</g>
<rect id="Rectangle 58" x="-22" y="-753" width="360" height="801" fill="#262626" fill-opacity="0.7"/>
<g id="Group 25">
<path id="Rectangle 34" d="M-22 -145C-22 -153.284 -15.2843 -160 -7 -160H323C331.284 -160 338 -153.284 338 -145V47H-22V-145Z" fill="white"/>
<g id="logout2 1">
<g id="Group">
<g id="log-out-Bold">
<path id="log-out-Bold_2" d="M13.0007 21C13.0007 21.1313 12.9749 21.2614 12.9246 21.3827C12.8744 21.504 12.8007 21.6143 12.7078 21.7072C12.615 21.8 12.5047 21.8737 12.3834 21.9239C12.2621 21.9742 12.132 22 12.0007 22H8.00069C6.67508 21.9984 5.40422 21.4711 4.46687 20.5338C3.52952 19.5965 3.00223 18.3256 3.00067 17V6.99997C3.00223 5.67437 3.52952 4.40351 4.46687 3.46617C5.40422 2.52883 6.67508 2.00155 8.00069 2H12.0007C12.2659 2 12.5202 2.10536 12.7078 2.29289C12.8953 2.48042 13.0007 2.73477 13.0007 2.99998C13.0007 3.2652 12.8953 3.51955 12.7078 3.70708C12.5202 3.89461 12.2659 3.99997 12.0007 3.99997H8.00069C7.2053 4.00084 6.44275 4.31719 5.88033 4.87961C5.31791 5.44203 5.00156 6.20459 5.00069 6.99997V17C5.00156 17.7954 5.31791 18.5579 5.88033 19.1204C6.44275 19.6828 7.2053 19.9991 8.00069 20H12.0007C12.132 20 12.2621 20.0258 12.3834 20.076C12.5047 20.1263 12.615 20.1999 12.7078 20.2928C12.8007 20.3857 12.8744 20.4959 12.9246 20.6173C12.9749 20.7386 13.0007 20.8687 13.0007 21V21ZM20.9235 12.3821C20.9988 12.1993 21.0185 11.9983 20.9799 11.8043C20.9414 11.6104 20.8464 11.4322 20.7069 11.2921L16.7077 7.29294C16.6149 7.20009 16.5046 7.12644 16.3833 7.07619C16.262 7.02594 16.132 7.00007 16.0007 7.00007C15.8694 7.00007 15.7393 7.02594 15.618 7.07619C15.4967 7.12644 15.3865 7.20009 15.2936 7.29294C15.2008 7.38579 15.1271 7.49602 15.0769 7.61733C15.0266 7.73864 15.0008 7.86867 15.0008 7.99998C15.0008 8.13129 15.0266 8.26131 15.0769 8.38262C15.1271 8.50394 15.2008 8.61417 15.2936 8.70702L17.5866 11H10.0007C9.73544 11 9.48109 11.1054 9.29356 11.2929C9.10603 11.4804 9.00067 11.7348 9.00067 12C9.00067 12.2652 9.10603 12.5195 9.29356 12.7071C9.48109 12.8946 9.73544 13 10.0007 13H17.5866L15.2936 15.293C15.2008 15.3858 15.1271 15.496 15.0769 15.6173C15.0266 15.7387 15.0008 15.8687 15.0008 16C15.0008 16.1313 15.0266 16.2613 15.0769 16.3826C15.1271 16.504 15.2008 16.6142 15.2936 16.707C15.3865 16.7999 15.4967 16.8735 15.618 16.9238C15.7393 16.974 15.8694 16.9999 16.0007 16.9999C16.132 16.9999 16.262 16.974 16.3833 16.9238C16.5046 16.8735 16.6149 16.7999 16.7077 16.707L20.7069 12.7078C20.7999 12.6146 20.8735 12.5039 20.9235 12.3821V12.3821Z" fill="#262626" stroke="white" stroke-width="0.5"/>
</g>
</g>
</g>
</g>
</g>
<g id="Flow">
</g>
<defs>
<clipPath id="clip0_0_1">
<rect width="360" height="800" fill="white" transform="translate(-22 -753)"/>
</clipPath>
</defs>
</svg>
