<svg width="24" height="24" viewBox="0 0 24 24" fill="none" xmlns="http://www.w3.org/2000/svg">
<path d="M11.5623 4.93226L12 5.72512L12.4377 4.93228C12.8141 4.25062 13.4455 3.32928 14.3804 2.6126L14.0811 2.22209L14.3804 2.6126C15.3473 1.87146 16.4348 1.5 17.625 1.5C20.9497 1.5 23.5 4.18781 23.5 7.85353C23.5 9.80885 22.715 11.4764 21.2599 13.2167C19.792 14.9722 17.6819 16.7566 15.0825 18.9522L15.4051 19.3342L15.0825 18.9522L15.0825 18.9523C14.2032 19.695 13.2046 20.5384 12.1662 21.4385L12.166 21.4387C12.1211 21.4777 12.0623 21.5 12 21.5C11.9377 21.5 11.879 21.4777 11.8341 21.4387L11.8338 21.4385C10.7961 20.5391 9.79803 19.696 8.91966 18.954L8.91807 18.9527L8.59542 19.3347L8.91806 18.9527C6.31833 16.7569 4.20809 14.9723 2.74021 13.2168C1.28498 11.4764 0.5 9.80884 0.5 7.85353C0.5 4.18781 3.05029 1.5 6.375 1.5C7.56521 1.5 8.65272 1.87146 9.61958 2.6126L9.91892 2.22209L9.61958 2.6126C10.5545 3.32928 11.1859 4.25058 11.5623 4.93226Z" fill="#FA383E" stroke="#FA383E"/>
</svg>
