<svg width="24" height="24" viewBox="0 0 24 24" fill="none" xmlns="http://www.w3.org/2000/svg">
<g clip-path="url(#clip0_71_1896)">
<path d="M23.9908 22.6685L22.5715 11.2794C22.5036 10.7343 21.9818 10.1489 21.2617 10.1489H17.2176V7.70041C17.2176 5.1536 14.8276 3 11.9994 3C9.17111 3 6.78113 5.1536 6.78113 7.70041V10.1489H2.73699C2.01164 10.1489 1.49504 10.7342 1.42723 11.2794L0.0078948 22.7177C-0.0338347 23.0483 0.0914026 23.379 0.347063 23.6247C0.592303 23.8615 0.947175 24 1.31765 24H22.681C23.0463 24 23.3907 23.8615 23.6307 23.6247C23.9021 23.3656 24.0378 23.017 23.9908 22.6685ZM16.534 13.2498C16.6383 13.2855 16.7532 13.2855 16.8575 13.2498L17.1236 14.617H16.2679L16.534 13.2498ZM7.82476 7.70041C7.82476 5.63616 9.73463 3.8936 11.9993 3.8936C14.264 3.8936 16.1739 5.63616 16.1739 7.70041V10.1489H7.82476V7.70041ZM7.14119 13.2498C7.24554 13.2855 7.36035 13.2855 7.4647 13.2498L7.73083 14.617H6.87506L7.14119 13.2498ZM22.8533 23.0305C22.8116 23.0751 22.7489 23.102 22.6811 23.1064H1.31765C1.24461 23.1064 1.17153 23.0796 1.11938 23.0305C1.05676 22.9724 1.03068 22.8919 1.0411 22.816L2.46044 11.3777C2.48133 11.2079 2.6483 11.047 2.73699 11.047H6.78113V11.9406C6.52542 11.9406 6.30626 12.097 6.26453 12.316L5.74269 14.9968C5.69572 15.2426 5.88881 15.4704 6.17578 15.5107C6.20186 15.5151 6.23317 15.5151 6.25929 15.5151H8.3466C8.63361 15.5151 8.86843 15.3141 8.86843 15.0683C8.86843 15.046 8.86843 15.0192 8.8632 14.9968L8.34136 12.316C8.29963 12.1015 8.08047 11.9406 7.82476 11.9406V11.047H16.1739V11.9406C15.9182 11.9406 15.6991 12.097 15.6573 12.316L15.1355 14.9968C15.0885 15.2381 15.2816 15.4704 15.5634 15.5107C15.5895 15.5151 15.6208 15.5151 15.6469 15.5151H17.7342C18.0212 15.5151 18.256 15.3141 18.256 15.0683C18.256 15.046 18.256 15.0192 18.2508 14.9968L17.729 12.316C17.6872 12.1015 17.4681 11.9406 17.2124 11.9406V11.047H21.2565C21.3452 11.047 21.5122 11.2079 21.5331 11.3777L22.9576 22.7624C22.9681 22.8606 22.9315 22.9545 22.8533 23.0305Z" fill="#262626" stroke="#262626" stroke-width="0.2"/>
</g>
<defs>
<clipPath id="clip0_71_1896">
<rect width="24" height="24" fill="white"/>
</clipPath>
</defs>
</svg>
