<svg width="24" height="24" viewBox="0 0 24 24" fill="none" xmlns="http://www.w3.org/2000/svg">
<g clip-path="url(#clip0_71_1881)">
<path d="M23.9947 23.4909L21.3859 4.40001C21.3546 4.17276 21.1302 4 20.8694 4H3.12949C2.86339 4 2.64425 4.17271 2.61294 4.40001L0.00415462 23.4909C-0.032385 23.7409 0.176336 23.9682 0.463321 23.9954C0.484208 23.9954 0.505045 24 0.525932 24H9.91763C10.1524 24 10.3611 23.8591 10.4238 23.6591L11.9995 18.3955L13.5804 23.6591C13.643 23.8591 13.8465 24 14.0865 24H23.4782C23.7652 24 24 23.7955 24 23.5454C24 23.5273 24 23.5091 23.9947 23.4909ZM3.58865 4.90912H20.405L20.7755 7.63639H3.21822L3.58865 4.90912ZM14.4883 23.0909L12.5056 16.4864C12.4326 16.2455 12.1456 16.1 11.8691 16.1637C11.6865 16.2046 11.5456 16.3273 11.4986 16.4864L9.51071 23.0909H1.11027L3.09818 8.54551H20.9059L22.8938 23.0909H14.4883Z" fill="#262626" stroke="#262626" stroke-width="0.3"/>
</g>
<defs>
<clipPath id="clip0_71_1881">
<rect width="24" height="24" fill="white"/>
</clipPath>
</defs>
</svg>
