<svg width="24" height="24" viewBox="0 0 24 24" fill="none" xmlns="http://www.w3.org/2000/svg">
<path d="M1.23219 5.04214C1.15862 4.96945 1.10022 4.88296 1.06037 4.78768C1.02052 4.69239 1 4.59019 1 4.48696C1 4.38373 1.02052 4.28153 1.06037 4.18624C1.10022 4.09096 1.15862 4.00447 1.23219 3.93178L3.88534 1.28883C4.03315 1.14159 4.23362 1.05887 4.44266 1.05887C4.54616 1.05887 4.64865 1.07917 4.74428 1.11863C4.8399 1.15809 4.92679 1.21592 4.99998 1.28883C5.07317 1.36173 5.13122 1.44829 5.17083 1.54354C5.21044 1.6388 5.23083 1.7409 5.23083 1.844C5.23083 1.94711 5.21044 2.04921 5.17083 2.14446C5.13122 2.23972 5.07317 2.32627 4.99998 2.39918L2.34683 5.04214C2.27385 5.11543 2.18704 5.1736 2.09138 5.2133C1.99573 5.25299 1.89313 5.27343 1.78951 5.27343C1.68588 5.27343 1.58329 5.25299 1.48763 5.2133C1.39198 5.1736 1.30516 5.11543 1.23219 5.04214ZM1.78951 14.0892C1.89281 14.0898 1.99522 14.07 2.09086 14.0311C2.18649 13.9922 2.27348 13.9349 2.34683 13.8624L13.87 2.39918C13.9573 2.33154 14.0293 2.24629 14.0812 2.14902C14.1331 2.05174 14.1638 1.94463 14.1712 1.83471C14.1787 1.72478 14.1628 1.61453 14.1245 1.51118C14.0862 1.40782 14.0264 1.31369 13.949 1.23496C13.8717 1.15623 13.7785 1.09467 13.6756 1.05432C13.5726 1.01398 13.4623 0.995748 13.3518 1.00083C13.2414 1.00592 13.1332 1.03421 13.0345 1.08384C12.9357 1.13347 12.8486 1.20332 12.7789 1.28883L1.23219 12.7912C1.15862 12.8638 1.10022 12.9503 1.06037 13.0456C1.02052 13.1409 1 13.2431 1 13.3463C1 13.4496 1.02052 13.5518 1.06037 13.647C1.10022 13.7423 1.15862 13.8288 1.23219 13.9015C1.38409 14.0393 1.58418 14.1123 1.78951 14.1048V14.0892ZM22.7557 1.31229C22.6827 1.239 22.5959 1.18082 22.5002 1.14113C22.4046 1.10143 22.302 1.08099 22.1984 1.08099C22.0947 1.08099 21.9921 1.10143 21.8965 1.14113C21.8008 1.18082 21.714 1.239 21.641 1.31229L1.23219 21.6427C1.15862 21.7154 1.10022 21.8019 1.06037 21.8972C1.02052 21.9925 1 22.0947 1 22.1979C1 22.3011 1.02052 22.4033 1.06037 22.4986C1.10022 22.5939 1.15862 22.6804 1.23219 22.7531C1.30516 22.8264 1.39198 22.8845 1.48763 22.9242C1.58329 22.9639 1.68588 22.9844 1.78951 22.9844C1.89313 22.9844 1.99573 22.9639 2.09138 22.9242C2.18704 22.8845 2.27385 22.8264 2.34683 22.7531L22.7557 2.42264C22.8329 2.34959 22.8943 2.26166 22.9363 2.1642C22.9783 2.06675 23 1.96179 23 1.85573C23 1.74967 22.9783 1.64472 22.9363 1.54726C22.8943 1.4498 22.8329 1.36188 22.7557 1.28883V1.31229ZM21.641 10.1795L10.1179 21.6193C10.0443 21.6919 9.98592 21.7784 9.94607 21.8737C9.90622 21.969 9.8857 22.0712 9.8857 22.1744C9.8857 22.2777 9.90622 22.3799 9.94607 22.4751C9.98592 22.5704 10.0443 22.6569 10.1179 22.7296C10.1909 22.8029 10.2777 22.8611 10.3733 22.9008C10.469 22.9405 10.5716 22.9609 10.6752 22.9609C10.7788 22.9609 10.8814 22.9405 10.9771 22.9008C11.0727 22.8611 11.1596 22.8029 11.2325 22.7296L22.7557 11.2273C22.9035 11.08 22.9865 10.8803 22.9865 10.6721C22.9865 10.4639 22.9035 10.2642 22.7557 10.1169C22.6079 9.96968 22.4074 9.88696 22.1984 9.88696C21.9893 9.88696 21.7889 9.96968 21.641 10.1169V10.1795ZM21.641 19.0154L18.9879 21.6584C18.9143 21.731 18.8559 21.8175 18.8161 21.9128C18.7762 22.0081 18.7557 22.1103 18.7557 22.2135C18.7557 22.3168 18.7762 22.419 18.8161 22.5142C18.8559 22.6095 18.9143 22.696 18.9879 22.7687C19.0609 22.842 19.1477 22.9002 19.2433 22.9399C19.339 22.9796 19.4416 23 19.5452 23C19.6488 23 19.7514 22.9796 19.8471 22.9399C19.9427 22.9002 20.0296 22.842 20.1025 22.7687L22.7557 20.1257C22.8289 20.0528 22.8869 19.9663 22.9265 19.871C22.9661 19.7758 22.9865 19.6737 22.9865 19.5706C22.9865 19.4675 22.9661 19.3654 22.9265 19.2701C22.8869 19.1749 22.8289 19.0883 22.7557 19.0154C22.6825 18.9425 22.5956 18.8847 22.5 18.8452C22.4044 18.8057 22.3019 18.7854 22.1984 18.7854C22.0949 18.7854 21.9924 18.8057 21.8967 18.8452C21.8011 18.8847 21.7142 18.9425 21.641 19.0154Z" fill="#262626"/>
</svg>
