<svg width="24" height="24" viewBox="0 0 24 24" fill="none" xmlns="http://www.w3.org/2000/svg">
<mask id="path-1-inside-1_71_1891" fill="white">
<path d="M22.8549 19.3224L9.34498 14.1675C9.08497 14.0675 8.79997 14.1975 8.69998 14.4575C8.67997 14.5125 8.66497 14.5725 8.66497 14.6375C8.66497 15.1425 7.83997 15.6575 5.99497 15.6575C4.51996 15.6575 3.32498 15.1375 3.32498 14.5025C3.32498 14.2275 3.09998 14.0025 2.82496 14.0025H1.635C0.609983 13.9975 0 14.6825 0 15.8225V23.4975C0 23.7725 0.225 23.9975 0.500015 23.9975H23.5C23.775 23.9975 24 23.7725 24 23.4975V20.5824C24 20.0175 23.615 19.5924 22.8549 19.3224ZM0.999982 22.9974V15.8225C0.999982 14.9975 1.41497 14.9975 1.635 14.9975H2.40501C2.75001 15.9925 4.13001 16.6525 5.99502 16.6525C8.35503 16.6525 9.20501 15.9125 9.51003 15.3025L11.305 15.9875L10.645 16.6475C10.445 16.8375 10.44 17.1575 10.635 17.3525C10.83 17.5475 11.145 17.5575 11.34 17.3625C11.345 17.3574 11.35 17.3525 11.35 17.3525L12.325 16.3775L14.195 17.0925L13.64 17.6475C13.44 17.8374 13.435 18.1575 13.63 18.3525C13.82 18.5525 14.14 18.5574 14.335 18.3624C14.34 18.3574 14.345 18.3525 14.345 18.3525L15.215 17.4825L22.5 20.2625C22.86 20.3925 22.9899 20.5125 22.9899 20.5875L22.9999 22.9974H0.999982V22.9974Z"/>
</mask>
<path d="M22.8549 19.3224L9.34498 14.1675C9.08497 14.0675 8.79997 14.1975 8.69998 14.4575C8.67997 14.5125 8.66497 14.5725 8.66497 14.6375C8.66497 15.1425 7.83997 15.6575 5.99497 15.6575C4.51996 15.6575 3.32498 15.1375 3.32498 14.5025C3.32498 14.2275 3.09998 14.0025 2.82496 14.0025H1.635C0.609983 13.9975 0 14.6825 0 15.8225V23.4975C0 23.7725 0.225 23.9975 0.500015 23.9975H23.5C23.775 23.9975 24 23.7725 24 23.4975V20.5824C24 20.0175 23.615 19.5924 22.8549 19.3224ZM0.999982 22.9974V15.8225C0.999982 14.9975 1.41497 14.9975 1.635 14.9975H2.40501C2.75001 15.9925 4.13001 16.6525 5.99502 16.6525C8.35503 16.6525 9.20501 15.9125 9.51003 15.3025L11.305 15.9875L10.645 16.6475C10.445 16.8375 10.44 17.1575 10.635 17.3525C10.83 17.5475 11.145 17.5575 11.34 17.3625C11.345 17.3574 11.35 17.3525 11.35 17.3525L12.325 16.3775L14.195 17.0925L13.64 17.6475C13.44 17.8374 13.435 18.1575 13.63 18.3525C13.82 18.5525 14.14 18.5574 14.335 18.3624C14.34 18.3574 14.345 18.3525 14.345 18.3525L15.215 17.4825L22.5 20.2625C22.86 20.3925 22.9899 20.5125 22.9899 20.5875L22.9999 22.9974H0.999982V22.9974Z" fill="#262626" stroke="#262626" stroke-width="0.6" mask="url(#path-1-inside-1_71_1891)"/>
</svg>
