<svg width="24" height="24" viewBox="0 0 24 24" fill="none" xmlns="http://www.w3.org/2000/svg">
<g clip-path="url(#clip0_71_1876)">
<path d="M23.9559 8.76217C23.8409 8.50715 21.0657 2.4967 15.5003 2.4967C15.2753 2.4967 15.0752 2.64672 15.0202 2.86672C14.9902 2.97172 14.2652 5.49693 12 5.49693C9.73482 5.49693 9.00975 2.97172 8.97975 2.86672C8.91974 2.64672 8.72473 2.4967 8.49971 2.4967C2.93433 2.4967 0.159122 8.50715 0.0440815 8.76217C-0.0459253 8.9622 0.00409411 9.20221 0.174076 9.34721L3.67436 12.3774C3.88437 12.5575 4.1994 12.5374 4.37941 12.3274C4.3894 12.3174 4.39441 12.3074 4.39943 12.3024L4.99948 11.5024V23.0032C4.99948 23.2783 5.22449 23.5033 5.49953 23.5033H18.5005C18.7755 23.5033 19.0006 23.2783 19.0006 23.0032V11.4973L19.6006 12.2974C19.7656 12.5174 20.0806 12.5624 20.3006 12.3974C20.3106 12.3924 20.3207 12.3824 20.3256 12.3774L23.8259 9.34716C23.9959 9.20222 24.0459 8.96721 23.9559 8.76217ZM20.0806 11.2674L18.9006 9.69725C18.7206 9.45723 18.3705 9.42723 18.1455 9.64226C18.0455 9.73729 18.0005 9.8723 18.0005 10.0123V22.4982H5.99958V10.0073C5.99958 9.79724 5.87456 9.59721 5.67457 9.52722C5.45954 9.4472 5.22955 9.52722 5.09951 9.69725L3.91939 11.2674L1.11919 8.84716C1.74924 7.66708 4.13944 3.73177 8.13973 3.50675C8.59478 4.71186 9.81484 6.49699 12 6.49699C14.1852 6.49699 15.4053 4.71186 15.8603 3.50675C19.8606 3.73177 22.2508 7.67205 22.8809 8.84716L20.0806 11.2674Z" fill="#262626" stroke="#262626" stroke-width="0.3"/>
</g>
<defs>
<clipPath id="clip0_71_1876">
<rect width="24" height="24" fill="white"/>
</clipPath>
</defs>
</svg>
