<svg width="24" height="24" viewBox="0 0 24 24" fill="none" xmlns="http://www.w3.org/2000/svg">
<g clip-path="url(#clip0_78_690)">
<path d="M12.9999 6C12.9999 6.55225 12.5522 6.99994 11.9999 6.99994C11.4477 6.99994 11 6.55225 11 6C11 5.44775 11.4477 5.00006 11.9999 5.00006C12.5522 5.00006 12.9999 5.44775 12.9999 6Z" fill="#262626"/>
<path d="M11.9999 18.9999C11.5859 18.9999 11.2499 18.6639 11.2499 18.2499V10.5H10.25C9.836 10.5 9.5 10.164 9.5 9.75C9.5 9.336 9.836 9 10.25 9H11.9999C12.4139 9 12.7499 9.336 12.7499 9.75V18.2499C12.7499 18.6639 12.4139 18.9999 11.9999 18.9999Z" fill="#262626"/>
<path d="M12 24C5.38293 24 0 18.6171 0 12C0 5.38293 5.38293 0 12 0C18.6171 0 24 5.38293 24 12C24 18.6171 18.6171 24 12 24ZM12 1.5C6.21002 1.5 1.5 6.21002 1.5 12C1.5 17.79 6.21002 22.5 12 22.5C17.79 22.5 22.5 17.79 22.5 12C22.5 6.21002 17.79 1.5 12 1.5Z" fill="#262626"/>
<path d="M14.25 18.9999H9.75C9.336 18.9999 9 18.6639 9 18.2499C9 17.8359 9.336 17.4999 9.75 17.4999H14.25C14.664 17.4999 15 17.8359 15 18.2499C15 18.6639 14.664 18.9999 14.25 18.9999Z" fill="#262626"/>
</g>
<defs>
<clipPath id="clip0_78_690">
<rect width="24" height="24" fill="white"/>
</clipPath>
</defs>
</svg>
