<svg width="24" height="24" viewBox="0 0 24 24" fill="none" xmlns="http://www.w3.org/2000/svg">
<g clip-path="url(#clip0_201_646)">
<path d="M19.8226 4.17752C15.6301 -0.131227 8.08132 -0.149977 4.05382 4.36127C4.01965 4.44682 4.00687 4.53942 4.01659 4.63102C4.0263 4.72263 4.05823 4.81048 4.10958 4.88696C4.16094 4.96344 4.23017 5.02623 4.31129 5.0699C4.3924 5.11356 4.48295 5.13677 4.57507 5.13752H9.01882C9.168 5.13752 9.31107 5.07826 9.41656 4.97277C9.52205 4.86728 9.58132 4.72421 9.58132 4.57502C9.58132 4.42584 9.52205 4.28276 9.41656 4.17727C9.31107 4.07179 9.168 4.01252 9.01882 4.01252H6.09007C14.7488 -2.18248 25.6838 7.38752 20.7151 16.7888C20.6688 16.874 20.6452 16.9697 20.6465 17.0666C20.6478 17.1636 20.674 17.2585 20.7226 17.3425C20.7711 17.4264 20.8404 17.4965 20.9238 17.5459C21.0072 17.5954 21.1019 17.6226 21.1988 17.625C21.2995 17.6254 21.3985 17.5984 21.485 17.5469C21.5715 17.4954 21.6424 17.4213 21.6901 17.3325C22.84 15.2319 23.2795 12.8156 22.9429 10.4446C22.6063 8.07359 21.5117 5.8751 19.8226 4.17752Z" fill="white" stroke="white" stroke-width="0.5"/>
<path d="M19.9463 19.6313C19.9798 19.5461 19.9921 19.4541 19.982 19.3631C19.972 19.2722 19.9399 19.1851 19.8885 19.1093C19.8372 19.0336 19.7681 18.9715 19.6873 18.9285C19.6066 18.8855 19.5165 18.8629 19.425 18.8625H15.2363C15.0871 18.8625 14.944 18.9218 14.8385 19.0273C14.733 19.1328 14.6738 19.2758 14.6738 19.425C14.6738 19.5742 14.733 19.7173 14.8385 19.8228C14.944 19.9283 15.0871 19.9875 15.2363 19.9875H17.91C9.25503 26.1825 -1.68372 16.6125 3.28503 7.21127C3.32619 7.1465 3.35367 7.07399 3.36577 6.99821C3.37786 6.92243 3.37432 6.84497 3.35537 6.77061C3.33641 6.69625 3.30244 6.62655 3.25555 6.5658C3.20865 6.50506 3.14982 6.45455 3.08267 6.41739C3.01553 6.38023 2.94149 6.3572 2.86511 6.34972C2.78874 6.34224 2.71164 6.35047 2.63856 6.3739C2.56548 6.39733 2.49797 6.43547 2.44018 6.48596C2.38239 6.53646 2.33555 6.59824 2.30253 6.66752C-1.77372 13.95 3.71253 23.1675 12.015 23.0513C14.8913 23.055 18.03 21.8625 19.9463 19.6313Z" fill="white" stroke="white" stroke-width="0.5"/>
</g>
<defs>
<clipPath id="clip0_201_646">
<rect width="24" height="24" fill="white"/>
</clipPath>
</defs>
</svg>
