<svg width="24" height="24" viewBox="0 0 24 24" fill="none" xmlns="http://www.w3.org/2000/svg">
<g id="find 3" clip-path="url(#clip0_63_1045)">
<g id="Group">
<g id="Group_2">
<path id="Vector" d="M16.3015 18.0876L21.8444 23.6305C22.337 24.1232 23.1379 24.1232 23.6305 23.6305C24.1232 23.1379 24.1232 22.337 23.6305 21.8444L18.0876 16.3015C19.4178 14.5886 20.2111 12.4386 20.2111 10.1055C20.2111 4.52854 15.6825 0 10.1055 0C4.52854 0 0 4.52854 0 10.1055C0 15.6825 4.52854 20.2111 10.1055 20.2111C12.4386 20.2111 14.5886 19.4178 16.3015 18.0876ZM10.1055 2.52638C14.288 2.52638 17.6847 5.9231 17.6847 10.1055C17.6847 14.288 14.288 17.6847 10.1055 17.6847C5.9231 17.6847 2.52638 14.288 2.52638 10.1055C2.52638 5.9231 5.9231 2.52638 10.1055 2.52638Z" fill="#262626" stroke="white" stroke-width="0.8"/>
</g>
</g>
</g>
<defs>
<clipPath id="clip0_63_1045">
<rect width="24" height="24" fill="white"/>
</clipPath>
</defs>
</svg>
