<svg width="24" height="24" viewBox="0 0 24 24" fill="none" xmlns="http://www.w3.org/2000/svg">
<path d="M21.845 16.7178L12.6445 10.2004V9.71546C12.6445 9.16248 12.9027 8.6481 13.3183 8.37307C14.2546 7.75353 14.8111 6.56021 14.7708 5.25884C14.7161 3.49971 13.5462 2.06934 12.1074 2.00258C11.3461 1.96686 10.6251 2.30282 10.0773 2.94746C9.52908 3.59258 9.22718 4.46009 9.22718 5.3901C9.22718 5.82522 9.51576 6.17798 9.87171 6.17798C10.2277 6.17798 10.5162 5.82522 10.5162 5.3901C10.5162 4.89227 10.6779 4.42799 10.9713 4.08264C11.2644 3.73776 11.65 3.55775 12.0585 3.57719C12.8278 3.6129 13.4534 4.37783 13.4826 5.31861C13.5043 6.01599 13.2062 6.65539 12.7047 6.98729C11.8725 7.53797 11.3555 8.58333 11.3555 9.71546V10.2004L2.15504 16.7178C1.44258 17.2225 1 18.1614 1 19.1681C1 20.7297 2.03907 22 3.31627 22H20.6837C21.9609 22 23 20.7296 23 19.1681C23 18.1614 22.5574 17.2225 21.845 16.7178ZM20.6837 20.4242H3.31627C2.74986 20.4242 2.28906 19.8607 2.28906 19.1681C2.28906 18.7215 2.48534 18.305 2.80138 18.0812L12 11.5651L21.1986 18.0812C21.5146 18.3051 21.7109 18.7215 21.7109 19.1681C21.7109 19.8607 21.2501 20.4242 20.6837 20.4242Z" fill="#262626"/>
</svg>
