<svg width="24" height="24" viewBox="0 0 24 24" fill="none" xmlns="http://www.w3.org/2000/svg">
<g clip-path="url(#clip0_37_2347)">
<path d="M12.1984 0C8.32029 0 5.16516 3.15513 5.16516 7.03329C5.16516 10.9114 8.32029 14.0666 12.1984 14.0666C16.0766 14.0666 19.2317 10.9114 19.2317 7.03329C19.2317 3.15513 16.0766 0 12.1984 0ZM12.1984 12.5036C9.18211 12.5036 6.72811 10.0496 6.72811 7.03329C6.72811 4.01694 9.18211 1.56295 12.1984 1.56295C15.2148 1.56295 17.6688 4.01694 17.6688 7.03329C17.6688 10.0496 15.2148 12.5036 12.1984 12.5036Z" fill="#262626"/>
<path d="M20.9492 15.987C19.0237 14.0318 16.471 12.9551 13.7614 12.9551H10.6355C7.92598 12.9551 5.37326 14.0318 3.4477 15.987C1.53157 17.9326 0.476318 20.5007 0.476318 23.2185C0.476318 23.6501 0.826211 24 1.25779 24H23.1391C23.5707 24 23.9206 23.6501 23.9206 23.2185C23.9206 20.5007 22.8654 17.9326 20.9492 15.987ZM2.07366 22.437C2.46518 18.0042 6.15562 14.5181 10.6355 14.5181H13.7614C18.2413 14.5181 21.9318 18.0042 22.3233 22.437H2.07366Z" fill="#262626"/>
<path d="M20.6313 15.8977C18.7849 14.0291 16.3371 13 13.7389 13H10.7415C8.1434 13 5.69562 14.0291 3.84923 15.8977C2.01187 17.7571 1 20.2116 1 22.8091C1 23.2216 1.33551 23.556 1.74935 23.556H22.7311C23.145 23.556 23.4805 23.2216 23.4805 22.8091C23.4805 20.2116 22.4686 17.7571 20.6313 15.8977Z" fill="#262626"/>
<path d="M12 1C8.6916 1 6 3.6916 6 7C6 10.3084 8.6916 13 12 13C15.3084 13 18 10.3084 18 7C18 3.6916 15.3084 1 12 1Z" fill="#262626"/>
</g>
<defs>
<clipPath id="clip0_37_2347">
<rect width="24" height="24" fill="white"/>
</clipPath>
</defs>
</svg>
