<svg width="24" height="24" viewBox="0 0 24 24" fill="none" xmlns="http://www.w3.org/2000/svg">
<g clip-path="url(#clip0_32_273)">
<path d="M12.1984 0C8.32023 0 5.1651 3.15513 5.1651 7.03329C5.1651 10.9114 8.32023 14.0666 12.1984 14.0666C16.0765 14.0666 19.2317 10.9114 19.2317 7.03329C19.2317 3.15513 16.0765 0 12.1984 0ZM12.1984 12.5036C9.18204 12.5036 6.72805 10.0496 6.72805 7.03329C6.72805 4.01694 9.18204 1.56295 12.1984 1.56295C15.2147 1.56295 17.6687 4.01694 17.6687 7.03329C17.6687 10.0496 15.2147 12.5036 12.1984 12.5036Z" fill="#262626"/>
<path d="M20.9492 15.987C19.0236 14.0319 16.4709 12.9551 13.7614 12.9551H10.6354C7.92592 12.9551 5.3732 14.0319 3.44764 15.987C1.53151 17.9326 0.476257 20.5007 0.476257 23.2185C0.476257 23.6501 0.82615 24 1.25773 24H23.1391C23.5707 24 23.9205 23.6501 23.9205 23.2185C23.9205 20.5007 22.8653 17.9326 20.9492 15.987ZM2.07359 22.4371C2.46511 18.0042 6.15556 14.5181 10.6354 14.5181H13.7614C18.2412 14.5181 21.9317 18.0042 22.3232 22.4371H2.07359Z" fill="#262626"/>
</g>
<defs>
<clipPath id="clip0_32_273">
<rect width="24" height="24" fill="white"/>
</clipPath>
</defs>
</svg>
