<svg width="24" height="24" viewBox="0 0 24 24" fill="none" xmlns="http://www.w3.org/2000/svg">
<rect width="24" height="24" fill="#F5F5F5"/>
<rect width="1080" height="2148" transform="translate(-79 -300)" fill="white"/>
<g clip-path="url(#clip0_0_1)">
<path d="M21.1609 8.87443C21.2403 8.48415 21.0848 8.05469 20.7739 7.80573C20.5807 7.651 20.3326 7.57009 20.0851 7.57009C19.9345 7.57009 19.7841 7.60009 19.6465 7.66169C19.5978 7.68348 19.5508 7.70889 19.5053 7.73345C19.4342 7.7718 19.3671 7.80803 19.2947 7.83152C18.9632 7.93886 18.6445 7.76233 18.3073 7.57534C18.1564 7.49167 18.0003 7.40519 17.8421 7.3457C17.5552 7.23785 17.2463 7.2191 16.9476 7.201C16.7275 7.18769 16.4998 7.17386 16.285 7.12417C15.966 7.0503 15.6593 6.82886 15.5221 6.57316C15.4353 6.41144 15.4201 6.24415 15.4781 6.08932C15.5172 5.98479 15.5859 5.8954 15.6586 5.80076C15.7227 5.71746 15.7889 5.63131 15.8345 5.53259C15.935 5.31537 15.9214 5.0757 15.9083 4.8439C15.8997 4.69212 15.8908 4.53518 15.9148 4.38837C15.9533 4.15283 16.0779 3.9328 16.1985 3.71998C16.3456 3.46002 16.4978 3.19119 16.501 2.8858C16.5026 2.7269 16.4627 2.57301 16.4242 2.42418C16.4057 2.35297 16.3867 2.27938 16.3727 2.2071C16.3153 1.90865 16.344 1.59426 16.4556 1.29478L16.4825 1.25301C15.3685 0.790028 14.1973 0.507841 13.0135 0.405514C12.897 0.737106 12.5665 1.08618 12.4312 1.40723C12.3667 1.56032 12.3505 1.72963 12.2937 1.88573C12.2368 2.04182 12.1203 2.19487 11.9559 2.21835C11.9055 2.22557 11.8522 2.22032 11.8054 2.24038C11.6773 2.29527 11.6889 2.47813 11.63 2.6045C11.5681 2.73735 11.4167 2.80991 11.2704 2.8191C11.1241 2.82829 10.9802 2.78521 10.8399 2.74264C10.6589 2.68766 10.4644 2.6233 10.3555 2.46861C10.2958 2.38382 10.2687 2.28027 10.2155 2.19126C10.1212 2.03352 9.95543 1.93574 9.80712 1.82723C9.47347 1.5831 9.20501 1.15251 9.0275 0.748309C8.33867 0.929668 7.66335 1.17539 7.01076 1.48485L7.0378 1.52535C7.05224 1.67952 7.12794 1.82057 7.25038 1.91854L8.10444 2.60179C8.21764 2.69235 8.28256 2.82744 8.28256 2.97243V3.94302C8.28256 4.25905 8.53967 4.51615 8.85575 4.51615H9.25489C9.51659 4.51615 9.7295 4.72906 9.7295 4.99076V5.45032C9.7295 5.59999 9.65768 5.74254 9.5374 5.8317L7.19418 7.56747C7.11304 7.62756 7.01272 7.6607 6.91166 7.6607H5.46304C5.14701 7.6607 4.88991 7.91781 4.88991 8.23384V9.18934C4.88991 9.34243 4.94953 9.48638 5.05776 9.59462L6.07307 10.6099C6.18131 10.7182 6.32526 10.7778 6.47835 10.7778H7.9078C8.1695 10.7778 8.38241 10.9907 8.38241 11.2524V11.6765C8.38241 11.9925 8.63952 12.2497 8.95555 12.2497H9.95342C10.2151 12.2497 10.428 12.4626 10.428 12.7243C10.428 13.0403 10.6851 13.2974 11.0012 13.2974H12.2984C12.5601 13.2974 12.773 13.5103 12.773 13.772V15.1434C12.773 15.2874 12.7088 15.4219 12.5968 15.5125L10.6408 17.0939C10.5056 17.2032 10.428 17.3657 10.428 17.5396V18.2098C10.428 18.3407 10.3732 18.4669 10.2777 18.5564L9.54317 19.2437C9.42776 19.3516 9.36158 19.5041 9.36158 19.6622V21.1562C9.36158 21.4179 9.14867 21.6309 8.88701 21.6309H8.10744C7.84574 21.6309 7.63288 21.4179 7.63288 21.1562V20.2031C7.63288 20.1175 7.61324 20.0315 7.57611 19.9545L7.03124 18.8228C7.00049 18.759 6.98427 18.6878 6.98427 18.6169V16.4602C6.98427 16.2764 6.89521 16.1025 6.74601 15.9951L4.68652 14.5126C4.56295 14.4237 4.48922 14.2797 4.48922 14.1274V12.6358C4.48922 12.5552 4.50994 12.4754 4.54913 12.405L4.65783 12.2098C4.78223 11.9862 4.74225 11.7042 4.56056 11.5241L2.75237 9.73102C2.66316 9.64252 2.61198 9.51971 2.61198 9.39404V8.25231C2.61198 8.09214 2.54429 7.9382 2.42631 7.82997L1.53587 7.01303L1.4964 6.98163C-0.575745 11.3127 0.181424 16.6589 3.76955 20.247C8.31866 24.7961 15.6942 24.7961 20.2433 20.247C20.5483 19.942 20.8322 19.6239 21.0963 19.2951H21.034C20.6698 19.0331 20.3935 18.7976 20.1669 18.5563C19.5993 17.9516 19.2213 17.1666 19.1024 16.3459C19.0817 16.2024 19.0682 16.0546 19.0552 15.9117C19.0325 15.6628 19.009 15.4054 18.9462 15.1574C18.86 14.8175 18.7004 14.4969 18.5462 14.1868C18.34 13.7726 18.1453 13.3813 18.1046 12.9414C18.0464 12.3123 18.3446 11.6738 18.8645 11.3146C19.1695 11.1039 19.5366 10.9924 19.8918 10.8846C20.2267 10.7829 20.573 10.6777 20.8752 10.4892C20.9518 10.4413 21.0354 10.3798 21.0741 10.2866C21.1286 10.1555 21.0775 10.0265 21.028 9.90165C21.0071 9.84877 20.9873 9.79885 20.9753 9.74916C20.9306 9.56443 20.9965 9.38012 21.0663 9.18493C21.1022 9.08415 21.1394 8.98 21.1609 8.87443Z" fill="white"/>
<path d="M13.7532 13.0812H15.3538C15.7108 13.0812 16.0002 13.3015 16.0001 13.5732V14.8611C16.0001 15.0097 15.9119 15.1503 15.7601 15.2437L13.3466 16.7289C13.1948 16.8223 13.1066 16.9629 13.1066 17.1115V17.7408C13.1066 17.877 13.0325 18.0071 12.9018 18.1001L11.9955 18.7456C11.8649 18.8386 11.7907 18.9687 11.7907 19.1049V20.508C11.7907 20.7797 11.5013 21 11.1443 21H10.1824C9.82543 21 9.53601 20.7797 9.53601 20.508V19.6129C9.53601 19.5389 9.51409 19.466 9.47199 19.3994L8.79968 18.3366C8.75751 18.27 8.73565 18.197 8.73565 18.1231V16.0977C8.73565 15.9395 8.63565 15.7909 8.46693 15.6984L5.92622 14.3061C5.75751 14.2136 5.65751 14.0651 5.65751 13.9068V12.506C5.65751 12.4222 5.68562 12.3399 5.73912 12.2667L5.87318 12.0834C6.01408 11.8907 5.96931 11.6501 5.76352 11.4948L3.53248 9.81079C3.41009 9.71839 3.34126 9.59262 3.34126 9.46143V8.38918C3.34126 8.2513 3.26527 8.11981 3.13183 8.02661L2 7L2.5 6L4.5 3.5L6.91971 2.02069L8 1.5H8.70714L8.92039 2.02069C8.92039 2.17014 9.00969 2.3115 9.16302 2.40487L10.2169 3.04658C10.3703 3.13995 10.4595 3.28131 10.4595 3.43077V4.34238C10.4595 4.61409 10.7489 4.83437 11.1059 4.83437H11.5984C11.9554 4.83437 12.2448 5.05466 12.2448 5.32637V5.75796C12.2448 5.91385 12.1477 6.06053 11.9831 6.15333L9.09188 7.78343C8.98059 7.84621 8.84566 7.88006 8.70714 7.88006H6.91971C6.56273 7.88006 6.27331 8.10035 6.27331 8.37205V9.26941C6.27331 9.39989 6.34138 9.52504 6.46261 9.61732L7.71539 10.5708C7.83662 10.6631 8.00105 10.7149 8.17248 10.7149H9.93631C10.2933 10.7149 10.5827 10.9352 10.5827 11.2069V11.6052C10.5827 11.8769 10.8721 12.0972 11.2291 12.0972H12.4604C12.8173 12.0972 13.1068 12.3175 13.1068 12.5892C13.1068 12.8609 13.3962 13.0812 13.7532 13.0812Z" fill="#262626" stroke="#262626" stroke-width="1.3"/>
<path d="M18.395 8.20594C18.7126 8.17503 19.0392 8.08781 19.3541 8.06781C20.0261 8.02515 21.8195 8.09661 22.5 8.01595C22.4795 8.01899 22.7064 7.98525 22.5 8.01595C22.5 7.5 21 5.23431 21 5.23431C21 5.23431 20.5 4.5 19.3433 3.58597C18.6245 4.05653 17.8746 4.66719 17.5314 5.23431C17.3843 5.4775 17.2643 5.73455 17.0028 5.94488C16.8552 6.06357 16.67 6.16056 16.5329 6.28429C16.283 6.50999 16.2374 6.77989 16.2043 7.02808C16.1786 7.22037 16.1536 7.41729 16.2283 7.58413C16.303 7.75103 16.4996 7.88422 16.7751 7.87384C17.0374 7.86395 17.3787 7.73549 17.5328 7.85225C17.5891 7.89487 17.6 7.96102 17.6334 8.01596C17.7423 8.1954 18.0775 8.23684 18.395 8.20594Z" fill="#262626"/>
<path d="M22.5 8.01595C21.8195 8.09661 20.0261 8.02515 19.3541 8.06781C19.0392 8.08781 18.7126 8.17503 18.395 8.20594C18.0775 8.23684 17.7423 8.1954 17.6334 8.01596C17.6 7.96102 17.5891 7.89487 17.5328 7.85225C17.3787 7.73549 17.0374 7.86395 16.7751 7.87384C16.4996 7.88422 16.303 7.75103 16.2283 7.58413C16.1536 7.41729 16.1786 7.22037 16.2043 7.02808C16.2374 6.77989 16.283 6.50999 16.5329 6.28429C16.67 6.16056 16.8552 6.06357 17.0028 5.94488C17.2643 5.73455 17.3843 5.4775 17.5314 5.23431C17.8746 4.66719 18.6245 4.05653 19.3433 3.58597C20.5 4.5 21 5.23431 21 5.23431C21 5.23431 22.5 7.5 22.5 8.01595ZM22.5 8.01595C22.7064 7.98525 22.4795 8.01899 22.5 8.01595Z" stroke="#262626" stroke-width="1.3"/>
<circle cx="12" cy="12" r="11.35" stroke="#262626" stroke-width="1.3"/>
</g>
<defs>
<clipPath id="clip0_0_1">
<rect width="24" height="24" fill="white"/>
</clipPath>
</defs>
</svg>
