<svg width="24" height="24" viewBox="0 0 24 24" fill="none" xmlns="http://www.w3.org/2000/svg">
<path d="M9.78957 1.70754L4.54103 12.2075C4.41653 12.4566 4.59729 12.7497 4.87575 12.7502H9.99684L7.1404 22.3919C7.02113 22.7836 7.52644 23.0557 7.78786 22.7405L19.0379 9.24049C19.2404 8.99635 19.0672 8.62665 18.75 8.62599H12.367L17.1775 2.0979C17.3599 1.85059 17.1837 1.50088 16.8765 1.50023H10.1243C9.95358 1.50098 9.86633 1.57027 9.78957 1.70754ZM10.3572 2.25024H16.1345L11.3233 8.77759C11.1396 9.02527 11.3167 9.3764 11.625 9.376H17.9473L8.37746 20.8611L10.8611 12.4815C10.9321 12.2409 10.7515 11.9998 10.5007 12.0003H5.48219L10.3572 2.25024Z" fill="#262626" stroke="#262626" stroke-width="0.5"/>
</svg>
