<svg width="24" height="24" viewBox="0 0 24 24" fill="none" xmlns="http://www.w3.org/2000/svg">
<g clip-path="url(#clip0_201_669)">
<path d="M12.154 8.90698C10.8019 8.90698 9.70581 10.003 9.70581 11.3551C9.70581 12.7072 10.8019 13.8033 12.154 13.8033C13.506 13.8033 14.6021 12.7072 14.6021 11.3551C14.6021 10.003 13.506 8.90698 12.154 8.90698ZM12.154 12.6374C11.4457 12.6374 10.8716 12.0633 10.8716 11.3551C10.8716 10.6468 11.4457 10.0727 12.154 10.0727C12.8622 10.0727 13.4363 10.6468 13.4363 11.3551C13.4363 12.0633 12.8622 12.6374 12.154 12.6374Z" fill="white"/>
<path d="M21.9174 3.31122L6.00455 1.50431C5.38697 1.41651 4.76124 1.59681 4.28506 1.99979C3.80895 2.36897 3.50375 2.91621 3.43988 3.51528L3.14846 5.90512H2.24493C0.962561 5.90512 0.000787611 7.04172 0.000787611 8.32409V20.2441C-0.0315114 21.4669 0.93361 22.4845 2.15651 22.5168C2.18596 22.5176 2.21547 22.5177 2.24493 22.5174H18.2451C19.5275 22.5174 20.6933 21.5265 20.6933 20.2441V19.7778C21.0909 19.701 21.468 19.5422 21.8008 19.3115C22.273 18.9139 22.5753 18.3509 22.646 17.7377L23.9866 5.90512C24.1233 4.6198 23.2009 3.46356 21.9174 3.31122ZM19.5275 20.2441C19.5275 20.8853 18.8863 21.3516 18.2451 21.3516H2.24493C1.66572 21.3686 1.18241 20.9128 1.16539 20.3336C1.1645 20.3038 1.16489 20.2739 1.16656 20.2441V18.0874L5.68396 14.765C6.22663 14.3483 6.99098 14.3854 7.49092 14.8524L10.6677 17.6502C11.1501 18.0553 11.7573 18.2817 12.3872 18.2914C12.8797 18.2975 13.364 18.1663 13.7862 17.9125L19.5276 14.5901V20.2441H19.5275ZM19.5275 13.2203L13.174 16.9216C12.6285 17.2449 11.9379 17.1863 11.4545 16.7759L8.24864 13.9489C7.32982 13.1594 5.98687 13.111 5.0136 13.8323L1.16656 16.6302V8.32409C1.16656 7.68291 1.60374 7.0709 2.24493 7.0709H18.2451C18.9302 7.09929 19.4834 7.63995 19.5275 8.32409V13.2203ZM22.822 5.74776C22.8216 5.75161 22.8212 5.75551 22.8208 5.75936L21.451 17.592C21.4534 17.8988 21.3134 18.1893 21.0721 18.3788C20.9555 18.4954 20.6932 18.5537 20.6932 18.612V8.32409C20.6472 6.99637 19.5733 5.93519 18.2451 5.90512H4.31418L4.57648 3.63187C4.63338 3.33749 4.78729 3.07073 5.01366 2.87409C5.26926 2.69737 5.57831 2.61498 5.88802 2.64092L21.7717 4.47699C22.4126 4.53785 22.8828 5.1068 22.822 5.74776Z" fill="white"/>
</g>
<defs>
<clipPath id="clip0_201_669">
<rect width="24" height="24" fill="white"/>
</clipPath>
</defs>
</svg>
