<svg width="24" height="24" viewBox="0 0 24 24" fill="none" xmlns="http://www.w3.org/2000/svg">
<circle cx="12" cy="12" r="12" fill="white"/>
<path d="M7.8507 16.348C7.7609 16.348 7.67111 16.3141 7.60266 16.2456C7.46578 16.1087 7.46578 15.887 7.60266 15.7501L15.7501 7.60266C15.887 7.46578 16.1087 7.46578 16.2456 7.60266C16.3825 7.73955 16.3825 7.9613 16.2456 8.09819L8.09819 16.2456C8.03029 16.3141 7.9405 16.348 7.8507 16.348V16.348Z" fill="#262626" stroke="#262626" stroke-width="0.45"/>
<path d="M15.9981 16.348C15.9083 16.348 15.8185 16.3141 15.7501 16.2456L7.60266 8.09819C7.46578 7.9613 7.46578 7.73955 7.60266 7.60266C7.73955 7.46578 7.9613 7.46578 8.09819 7.60266L16.2456 15.7501C16.3825 15.887 16.3825 16.1087 16.2456 16.2456C16.1777 16.3141 16.0879 16.348 15.9981 16.348Z" fill="#262626" stroke="#262626" stroke-width="0.45"/>
</svg>
