<svg width="14" height="14" viewBox="0 0 14 14" fill="none" xmlns="http://www.w3.org/2000/svg">
<g clip-path="url(#clip0_6_2685)">
<path d="M13.5 7.0001C13.5 10.5898 10.5898 13.5001 7.00004 13.5001C3.41017 13.5001 0.499939 10.5898 0.499939 7.0001C0.499939 3.41023 3.41017 0.5 7.00004 0.5C10.5898 0.5 13.5 3.41023 13.5 7.0001Z" fill="#8E8E8E"/>
<path d="M7.00006 14C3.14012 14 0 10.8599 0 7.00006C0 3.14012 3.14012 0 7.00006 0C10.8599 0 14 3.14012 14 7.00006C14 10.8599 10.8599 14 7.00006 14ZM7.00006 1.00007C3.69158 1.00007 1.00007 3.69158 1.00007 7.00006C1.00007 10.3084 3.69158 13.0001 7.00006 13.0001C10.3084 13.0001 13.0001 10.3084 13.0001 7.00006C13.0001 3.69158 10.3084 1.00007 7.00006 1.00007Z" fill="#EFEFEF"/>
<path d="M9.50006 9.99996C9.37202 9.99996 9.24414 9.95118 9.14658 9.85347L4.14651 4.85341C3.95124 4.65814 3.95124 4.34171 4.14651 4.14645C4.34177 3.95118 4.65835 3.95118 4.85347 4.14645L9.85353 9.14652C10.0488 9.34178 10.0488 9.65821 9.85353 9.85347C9.75597 9.95118 9.62794 9.99996 9.50006 9.99996Z" fill="#EFEFEF"/>
<path d="M4.49999 9.99996C4.3721 9.99996 4.24421 9.95118 4.14651 9.85347C3.95124 9.65821 3.95124 9.34178 4.14651 9.14652L9.14658 4.14645C9.34184 3.95118 9.65827 3.95118 9.85353 4.14645C10.0488 4.34171 10.0488 4.65829 9.85353 4.85341L4.85347 9.85347C4.75591 9.95118 4.62802 9.99996 4.49999 9.99996Z" fill="#EFEFEF"/>
</g>
<defs>
<clipPath id="clip0_6_2685">
<rect width="14" height="14" fill="white"/>
</clipPath>
</defs>
</svg>
