<svg width="44" height="44" viewBox="0 0 44 44" fill="none" xmlns="http://www.w3.org/2000/svg">
<g id="bin1">
<circle id="Ellipse 13" cx="22" cy="22" r="21" fill="#262626" fill-opacity="0.5" stroke="white"/>
<g id="bin2 2">
<g id="Group">
<path id="Vector" d="M26.48 33.9583H17.52C16.6236 33.9453 15.7651 33.5945 15.1162 32.9758C14.4672 32.3572 14.0758 31.5164 14.02 30.6216L12.9584 14.475C12.9529 14.3579 12.9707 14.2409 13.0108 14.1308C13.0508 14.0206 13.1123 13.9195 13.1917 13.8333C13.2735 13.7439 13.3725 13.672 13.4827 13.6219C13.593 13.5718 13.7123 13.5445 13.8334 13.5416H30.1667C30.2867 13.5414 30.4054 13.5658 30.5156 13.6133C30.6257 13.6609 30.7249 13.7306 30.807 13.8182C30.889 13.9057 30.9522 14.0092 30.9926 14.1222C31.033 14.2352 31.0497 14.3552 31.0417 14.475L30.0267 30.6216C29.9703 31.5244 29.5723 32.3718 28.9135 32.9916C28.2547 33.6115 27.3846 33.9571 26.48 33.9583V33.9583ZM14.8134 15.2916L15.7117 30.5166C15.7414 30.9757 15.9449 31.4063 16.2809 31.7205C16.6168 32.0348 17.06 32.2093 17.52 32.2083H26.48C26.9393 32.2065 27.3809 32.0311 27.7162 31.7174C28.0516 31.4037 28.256 30.9747 28.2884 30.5166L29.2334 15.35L14.8134 15.2916Z" fill="white"/>
<path id="Vector_2" d="M32.5 15.2916H11.5C11.2679 15.2916 11.0454 15.1994 10.8813 15.0353C10.7172 14.8713 10.625 14.6487 10.625 14.4166C10.625 14.1846 10.7172 13.962 10.8813 13.7979C11.0454 13.6338 11.2679 13.5416 11.5 13.5416H32.5C32.7321 13.5416 32.9546 13.6338 33.1187 13.7979C33.2828 13.962 33.375 14.1846 33.375 14.4166C33.375 14.6487 33.2828 14.8713 33.1187 15.0353C32.9546 15.1994 32.7321 15.2916 32.5 15.2916V15.2916Z" fill="white"/>
<path id="Vector_3" d="M25.5 15.2916H18.5C18.2689 15.2886 18.0481 15.1954 17.8846 15.032C17.7212 14.8686 17.628 14.6478 17.625 14.4166V12.3166C17.6398 11.7179 17.8842 11.1478 18.3077 10.7243C18.7312 10.3009 19.3013 10.0564 19.9 10.0416H24.1C24.7087 10.0568 25.2873 10.3094 25.7123 10.7453C26.1374 11.1813 26.3752 11.7661 26.375 12.375V14.4166C26.372 14.6478 26.2788 14.8686 26.1154 15.032C25.9519 15.1954 25.7311 15.2886 25.5 15.2916V15.2916ZM19.375 13.5416H24.625V12.375C24.625 12.2357 24.5697 12.1022 24.4712 12.0037C24.3728 11.9053 24.2392 11.85 24.1 11.85H19.9C19.7608 11.85 19.6272 11.9053 19.5288 12.0037C19.4303 12.1022 19.375 12.2357 19.375 12.375V13.5416Z" fill="white"/>
</g>
</g>
</g>
</svg>
