<svg width="38" height="38" viewBox="0 0 38 38" fill="none" xmlns="http://www.w3.org/2000/svg">
<g id="bin1">
<circle id="Ellipse 13" cx="19" cy="19" r="18" fill="#262626" fill-opacity="0.5" stroke="white"/>
<g id="bin2 2">
<g id="Group">
<path id="Vector" d="M22.84 29.25H15.16C14.3916 29.2389 13.6557 28.9381 13.0995 28.4079C12.5433 27.8776 12.2078 27.157 12.16 26.39L11.25 12.55C11.2453 12.4497 11.2606 12.3494 11.2949 12.255C11.3292 12.1606 11.3819 12.0739 11.45 12C11.5201 11.9234 11.6049 11.8618 11.6994 11.8188C11.7939 11.7758 11.8962 11.7524 12 11.75H26C26.1028 11.7498 26.2046 11.7707 26.299 11.8115C26.3934 11.8523 26.4785 11.912 26.5488 11.987C26.6191 12.0621 26.6733 12.1508 26.7079 12.2476C26.7425 12.3445 26.7568 12.4474 26.75 12.55L25.88 26.39C25.8317 27.1638 25.4905 27.8902 24.9258 28.4214C24.3611 28.9527 23.6153 29.249 22.84 29.25V29.25ZM12.84 13.25L13.61 26.3C13.6354 26.6935 13.8099 27.0625 14.0978 27.3319C14.3858 27.6013 14.7656 27.7508 15.16 27.75H22.84C23.2336 27.7485 23.6121 27.5982 23.8996 27.3292C24.187 27.0603 24.3622 26.6927 24.39 26.3L25.2 13.3L12.84 13.25Z" fill="white"/>
<path id="Vector_2" d="M28 13.25H10C9.80109 13.25 9.61032 13.171 9.46967 13.0303C9.32902 12.8897 9.25 12.6989 9.25 12.5C9.25 12.3011 9.32902 12.1103 9.46967 11.9697C9.61032 11.829 9.80109 11.75 10 11.75H28C28.1989 11.75 28.3897 11.829 28.5303 11.9697C28.671 12.1103 28.75 12.3011 28.75 12.5C28.75 12.6989 28.671 12.8897 28.5303 13.0303C28.3897 13.171 28.1989 13.25 28 13.25V13.25Z" fill="white"/>
<path id="Vector_3" d="M22 13.25H16C15.8019 13.2474 15.6126 13.1676 15.4725 13.0275C15.3324 12.8874 15.2526 12.6981 15.25 12.5V10.7C15.2627 10.1868 15.4722 9.69816 15.8352 9.33518C16.1982 8.97219 16.6868 8.76268 17.2 8.75H20.8C21.3217 8.76305 21.8177 8.97951 22.182 9.35317C22.5463 9.72684 22.7502 10.2281 22.75 10.75V12.5C22.7474 12.6981 22.6676 12.8874 22.5275 13.0275C22.3874 13.1676 22.1981 13.2474 22 13.25V13.25ZM16.75 11.75H21.25V10.75C21.25 10.6307 21.2026 10.5162 21.1182 10.4318C21.0338 10.3474 20.9193 10.3 20.8 10.3H17.2C17.0807 10.3 16.9662 10.3474 16.8818 10.4318C16.7974 10.5162 16.75 10.6307 16.75 10.75V11.75Z" fill="white"/>
</g>
</g>
</g>
</svg>
