<svg width="24" height="24" viewBox="0 0 24 24" fill="none" xmlns="http://www.w3.org/2000/svg">
<g clip-path="url(#clip0_454_1014)">
<path fill-rule="evenodd" clip-rule="evenodd" d="M9.42787 2.20969C9.77615 1.46351 10.4635 1 11.2074 1C12.3223 1 13.227 2.01787 13.227 3.27238V8.6999H20.5071C21.8849 8.6999 23.0034 9.95837 23.0034 11.5085C23.0034 11.6314 22.9955 11.7456 22.9807 11.8638L22.0036 20.5971C21.8504 21.9737 20.8103 23.007 19.5784 23.007H1V10.3499H5.59526L9.42733 2.21089L9.42787 2.20969Z" fill="#262626"/>
<path d="M10.2979 2.72719L10.2989 2.72514C10.4763 2.34454 10.8273 2.10731 11.2074 2.10731C11.7788 2.10731 12.2428 2.62942 12.2428 3.27238V9.80718H20.5071C21.3413 9.80718 22.0192 10.5699 22.0192 11.5085C22.0192 11.5764 22.015 11.6395 22.0058 11.7121L22.0053 11.7166L21.027 20.4597C20.9356 21.2827 20.3138 21.8997 19.5784 21.8997H1.98415V11.4572M9.42787 2.20969C9.77615 1.46351 10.4635 1 11.2074 1C12.3223 1 13.227 2.01787 13.227 3.27238V8.6999H20.5071C21.8849 8.6999 23.0034 9.95837 23.0034 11.5085C23.0034 11.6314 22.9955 11.7456 22.9807 11.8638L22.0036 20.5971C21.8504 21.9737 20.8103 23.007 19.5784 23.007H1V10.3499H5.59526L9.42733 2.21089L9.42787 2.20969Z" stroke="#262626" stroke-width="0.3"/>
<path d="M5 10H4V23H5V10Z" fill="white"/>
<path d="M5 23H5.5V23.2H5V23ZM4 22.8H5V23.2H4V22.8ZM4.5 23V10H5.5V23H4.5Z" fill="white"/>
</g>
<defs>
<clipPath id="clip0_454_1014">
<rect width="24" height="24" fill="white"/>
</clipPath>
</defs>
</svg>
