<svg width="24" height="24" viewBox="0 0 24 24" fill="none" xmlns="http://www.w3.org/2000/svg">
<g clip-path="url(#clip0_5_1522)">
<path fill-rule="evenodd" clip-rule="evenodd" d="M5.39938 22.4534V10.9036H6.38351V22.4534H5.39938Z" fill="#262626" stroke="#262626" stroke-width="0.3"/>
<path fill-rule="evenodd" clip-rule="evenodd" d="M11.2074 2.10731C10.8273 2.10731 10.4763 2.34454 10.2989 2.72514L10.2979 2.72719L6.18761 11.4572H1.98414V21.8997H19.5784C20.3138 21.8997 20.9356 21.2827 21.027 20.4597L22.0053 11.7166L22.0058 11.7121C22.015 11.6395 22.0192 11.5764 22.0192 11.5085C22.0192 10.5699 21.3413 9.80718 20.5071 9.80718H12.2428V3.27238C12.2428 2.62942 11.7788 2.10731 11.2074 2.10731ZM9.42786 2.20969C9.77613 1.46351 10.4635 1 11.2074 1C12.3223 1 13.227 2.01787 13.227 3.27238V8.6999H20.5071C21.8848 8.6999 23.0033 9.95837 23.0033 11.5085C23.0033 11.6314 22.9955 11.7456 22.9807 11.8638L22.0036 20.5971C21.8504 21.9737 20.8103 23.007 19.5784 23.007H0.999985V10.3499H5.59524L9.42731 2.21089L9.42786 2.20969Z" fill="#262626" stroke="#262626" stroke-width="0.3"/>
</g>
<defs>
<clipPath id="clip0_5_1522">
<rect width="24" height="24" fill="white"/>
</clipPath>
</defs>
</svg>
