<svg width="16" height="16" viewBox="0 0 16 16" fill="none" xmlns="http://www.w3.org/2000/svg">
<g clip-path="url(#clip0_22_981)">
<path d="M8 13C2.76587 13 0.170875 8.437 0.063 8.24288C-0.021 8.09175 -0.021 7.90812 0.063 7.757C0.170875 7.563 2.76587 3 8 3C13.2341 3 15.8291 7.563 15.937 7.75712C16.021 7.90825 16.021 8.09188 15.937 8.243C15.8291 8.437 13.2341 13 8 13ZM1.08837 7.99925C1.68313 8.90062 4.01825 12 8 12C11.9944 12 14.3191 8.90312 14.9116 8.00075C14.3169 7.09937 11.9818 4 8 4C4.00562 4 1.68087 7.09688 1.08837 7.99925ZM8 11C6.34575 11 5 9.65425 5 8C5 6.34575 6.34575 5 8 5C9.65425 5 11 6.34575 11 8C11 9.65425 9.65425 11 8 11ZM8 6C6.89725 6 6 6.89725 6 8C6 9.10275 6.89725 10 8 10C9.10275 10 10 9.10275 10 8C10 6.89725 9.10275 6 8 6Z" fill="#8E8E8E"/>
</g>
<defs>
<clipPath id="clip0_22_981">
<rect width="16" height="16" fill="white"/>
</clipPath>
</defs>
</svg>
