<svg width="24" height="24" viewBox="0 0 24 24" fill="none" xmlns="http://www.w3.org/2000/svg">
<g clip-path="url(#clip0_6_3214)">
<path d="M11.8912 12.9788L16.3912 16.3538C16.47 16.4128 16.5597 16.4558 16.6551 16.4803C16.7505 16.5047 16.8498 16.5101 16.9473 16.4962C17.0448 16.4823 17.1386 16.4493 17.2234 16.3991C17.3081 16.3489 17.3822 16.2825 17.4412 16.2037C17.5003 16.125 17.5433 16.0353 17.5678 15.9399C17.5922 15.8445 17.5976 15.7452 17.5837 15.6477C17.5698 15.5502 17.5368 15.4564 17.4866 15.3716C17.4364 15.2869 17.37 15.2128 17.2913 15.1537L13.125 12V5.625C13.125 5.42609 13.046 5.23532 12.9053 5.09467C12.7647 4.95402 12.5739 4.875 12.375 4.875C12.1761 4.875 11.9853 4.95402 11.8447 5.09467C11.704 5.23532 11.625 5.42609 11.625 5.625V12.375C11.625 12.624 11.7292 12.8483 11.8912 12.9788Z" fill="#262626"/>
<path d="M12.75 0.75C7.26034 0.75 2.57246 4.71225 1.65746 10.125L1.37246 9.70125C1.26107 9.53615 1.08866 9.42207 0.893153 9.38409C0.697646 9.34612 0.495061 9.38736 0.329963 9.49875C0.164866 9.61014 0.0507807 9.78255 0.0128046 9.97806C-0.0251715 10.1736 0.0160725 10.3762 0.127463 10.5413L1.62746 12.7913C1.68838 12.8839 1.76908 12.9619 1.86375 13.0196C1.95842 13.0773 2.06471 13.1133 2.17496 13.125H2.24996C2.34831 13.1247 2.44563 13.105 2.53636 13.067C2.62708 13.029 2.70944 12.9736 2.77871 12.9037L4.65371 11.0287C4.7876 10.8866 4.86085 10.698 4.85795 10.5028C4.85504 10.3075 4.7762 10.1211 4.63814 9.98307C4.50008 9.84502 4.31368 9.76617 4.11846 9.76327C3.92324 9.76036 3.73457 9.83362 3.59246 9.9675L3.12746 10.4362C3.99109 5.121 8.99996 1.51275 14.3148 2.37637C19.6297 3.24 23.2387 8.2485 22.3751 13.5637C21.6082 18.2835 17.5316 21.7507 12.75 21.75C11.264 21.7769 9.79355 21.4446 8.46361 20.7813C7.13367 20.1179 5.9836 19.1432 5.11121 17.94C5.05409 17.8597 4.98171 17.7915 4.89822 17.7392C4.81472 17.6869 4.72174 17.6516 4.62459 17.6352C4.52744 17.6188 4.42801 17.6218 4.33199 17.6438C4.23597 17.6659 4.14523 17.7066 4.06496 17.7638C3.98469 17.8209 3.91646 17.8933 3.86416 17.9767C3.81186 18.0602 3.77652 18.1532 3.76015 18.2504C3.74379 18.3475 3.74672 18.447 3.76877 18.543C3.79083 18.639 3.83159 18.7297 3.88871 18.81C4.89898 20.209 6.23223 21.3433 7.77504 22.1163C9.31785 22.8893 11.0246 23.2783 12.75 23.25C18.9633 23.25 24 18.2134 24 12C24 5.78662 18.9633 0.75 12.75 0.75Z" fill="#262626"/>
</g>
<defs>
<clipPath id="clip0_6_3214">
<rect width="24" height="24" fill="white"/>
</clipPath>
</defs>
</svg>
