<svg width="24" height="24" viewBox="0 0 24 24" fill="none" xmlns="http://www.w3.org/2000/svg">
<g id="key 1" clip-path="url(#clip0_13_1180)">
<g id="Group">
<g id="key">
<path id="Vector" d="M1.00003 15.4469C1.00003 11.2814 4.38509 7.8922 8.54481 7.8922C9.46559 7.8922 10.3557 8.06344 11.2025 8.38432L18.4584 1.23858C18.6136 1.08562 18.8229 1 19.0404 1L22.1697 1C22.6281 1 23 1.37159 23 1.83129V6.87304C23 7.33274 22.6281 7.70433 22.1697 7.70433L20.2618 7.70433L20.2618 9.61462C20.2618 10.0743 19.8898 10.4459 19.4315 10.4459H17.3765V12.8458C17.3765 13.3055 17.0046 13.6771 16.5462 13.6771H15.8712C16.0099 14.2532 16.0879 14.8434 16.0879 15.4469C16.0879 19.6117 12.7037 23 8.54315 23C4.3826 23 1.00003 19.6117 1.00003 15.4469ZM8.54481 9.5556C5.30006 9.5556 2.6606 12.1991 2.6606 15.4478C2.6606 18.6956 5.30006 21.3383 8.54481 21.3383C11.7896 21.3383 14.429 18.6956 14.429 15.4478C14.429 14.658 14.2763 13.8933 13.9749 13.1725C13.9325 13.0728 13.9084 12.9622 13.9084 12.8467C13.9084 12.387 14.2804 12.0154 14.7387 12.0154H15.7176V9.61545C15.7176 9.15575 16.0896 8.78417 16.5479 8.78417H18.6029L18.6029 6.87387C18.6029 6.41417 18.9748 6.04258 19.4331 6.04258H21.3411V2.6634H19.3817L12.1233 9.81081C12.1233 9.81081 11.6625 10.3752 10.7733 9.99286C9.72547 9.5423 8.54481 9.5556 8.54481 9.5556ZM4.12937 16.8925C4.12937 15.2383 5.47442 13.8924 7.12669 13.8924C8.77895 13.8924 10.124 15.2383 10.124 16.8925C10.124 18.5485 8.77895 19.8951 7.12669 19.8951C5.47442 19.8951 4.12937 18.5485 4.12937 16.8925ZM8.46427 16.8925C8.46427 16.1544 7.86481 15.555 7.12752 15.555C6.39023 15.555 5.79076 16.1552 5.79076 16.8925C5.79076 17.6316 6.39023 18.2326 7.12752 18.2326C7.86481 18.2326 8.46427 17.6307 8.46427 16.8925Z" fill="#262626" stroke="white" stroke-width="0.4"/>
</g>
</g>
</g>
<defs>
<clipPath id="clip0_13_1180">
<rect width="24" height="24" fill="white" transform="matrix(0 1 1 0 0 0)"/>
</clipPath>
</defs>
</svg>
