<svg width="20" height="22" viewBox="0 0 20 22" fill="none" xmlns="http://www.w3.org/2000/svg">
<g id="Group">
<g id="log-out-Bold">
<path id="log-out-Bold_2" d="M11.0007 20C11.0008 20.1313 10.9749 20.2614 10.9247 20.3827C10.8744 20.504 10.8008 20.6143 10.7079 20.7072C10.615 20.8 10.5048 20.8737 10.3835 20.9239C10.2621 20.9742 10.1321 21 10.0007 21H6.00075C4.67515 20.9984 3.40428 20.4711 2.46693 19.5338C1.52958 18.5965 1.0023 17.3256 1.00073 16V5.99997C1.0023 4.67437 1.52958 3.40351 2.46693 2.46617C3.40428 1.52883 4.67515 1.00155 6.00075 1H10.0007C10.2659 1 10.5203 1.10536 10.7078 1.29289C10.8954 1.48042 11.0007 1.73477 11.0007 1.99998C11.0007 2.2652 10.8954 2.51955 10.7078 2.70708C10.5203 2.89461 10.2659 2.99997 10.0007 2.99997H6.00075C5.20537 3.00084 4.44281 3.31719 3.88039 3.87961C3.31797 4.44203 3.00162 5.20459 3.00075 5.99997V16C3.00162 16.7954 3.31797 17.5579 3.88039 18.1204C4.44281 18.6828 5.20537 18.9991 6.00075 19H10.0007C10.1321 19 10.2621 19.0258 10.3835 19.076C10.5048 19.1263 10.615 19.1999 10.7079 19.2928C10.8008 19.3857 10.8744 19.4959 10.9247 19.6173C10.9749 19.7386 11.0008 19.8687 11.0007 20V20ZM18.9236 11.3821C18.9989 11.1993 19.0185 10.9983 18.98 10.8043C18.9414 10.6104 18.8464 10.4322 18.7069 10.2921L14.7078 6.29294C14.6149 6.20009 14.5047 6.12644 14.3834 6.07619C14.2621 6.02594 14.132 6.00007 14.0007 6.00007C13.8694 6.00007 13.7394 6.02594 13.6181 6.07619C13.4968 6.12644 13.3866 6.20009 13.2937 6.29294C13.2009 6.38579 13.1272 6.49602 13.0769 6.61733C13.0267 6.73864 13.0008 6.86867 13.0008 6.99998C13.0008 7.13129 13.0267 7.26131 13.0769 7.38262C13.1272 7.50394 13.2009 7.61417 13.2937 7.70702L15.5867 10H8.00072C7.7355 10 7.48115 10.1054 7.29362 10.2929C7.10609 10.4804 7.00073 10.7348 7.00073 11C7.00073 11.2652 7.10609 11.5195 7.29362 11.7071C7.48115 11.8946 7.7355 12 8.00072 12H15.5867L13.2937 14.293C13.2009 14.3858 13.1272 14.496 13.0769 14.6173C13.0267 14.7387 13.0008 14.8687 13.0008 15C13.0008 15.1313 13.0267 15.2613 13.0769 15.3826C13.1272 15.504 13.2009 15.6142 13.2937 15.707C13.3866 15.7999 13.4968 15.8735 13.6181 15.9238C13.7394 15.974 13.8694 15.9999 14.0007 15.9999C14.132 15.9999 14.2621 15.974 14.3834 15.9238C14.5047 15.8735 14.6149 15.7999 14.7078 15.707L18.7069 11.7078C18.7999 11.6146 18.8736 11.5039 18.9236 11.3821V11.3821Z" fill="white" stroke="#262626" stroke-width="0.5"/>
</g>
</g>
</svg>
