<svg width="24" height="24" viewBox="0 0 24 24" fill="none" xmlns="http://www.w3.org/2000/svg">
<g id="logout2 1">
<g id="Group">
<g id="log-out-Bold">
<path id="log-out-Bold_2" d="M13.0007 21C13.0008 21.1313 12.9749 21.2614 12.9247 21.3827C12.8744 21.504 12.8008 21.6143 12.7079 21.7072C12.615 21.8 12.5048 21.8737 12.3835 21.9239C12.2621 21.9742 12.1321 22 12.0007 22H8.00075C6.67515 21.9984 5.40428 21.4711 4.46693 20.5338C3.52958 19.5965 3.0023 18.3256 3.00073 17V6.99997C3.0023 5.67437 3.52958 4.40351 4.46693 3.46617C5.40428 2.52883 6.67515 2.00155 8.00075 2H12.0007C12.2659 2 12.5203 2.10536 12.7078 2.29289C12.8954 2.48042 13.0007 2.73477 13.0007 2.99998C13.0007 3.2652 12.8954 3.51955 12.7078 3.70708C12.5203 3.89461 12.2659 3.99997 12.0007 3.99997H8.00075C7.20537 4.00084 6.44281 4.31719 5.88039 4.87961C5.31797 5.44203 5.00162 6.20459 5.00075 6.99997V17C5.00162 17.7954 5.31797 18.5579 5.88039 19.1204C6.44281 19.6828 7.20537 19.9991 8.00075 20H12.0007C12.1321 20 12.2621 20.0258 12.3835 20.076C12.5048 20.1263 12.615 20.1999 12.7079 20.2928C12.8008 20.3857 12.8744 20.4959 12.9247 20.6173C12.9749 20.7386 13.0008 20.8687 13.0007 21V21ZM20.9236 12.3821C20.9989 12.1993 21.0185 11.9983 20.98 11.8043C20.9414 11.6104 20.8464 11.4322 20.7069 11.2921L16.7078 7.29294C16.6149 7.20009 16.5047 7.12644 16.3834 7.07619C16.2621 7.02594 16.132 7.00007 16.0007 7.00007C15.8694 7.00007 15.7394 7.02594 15.6181 7.07619C15.4968 7.12644 15.3866 7.20009 15.2937 7.29294C15.2009 7.38579 15.1272 7.49602 15.0769 7.61733C15.0267 7.73864 15.0008 7.86867 15.0008 7.99998C15.0008 8.13129 15.0267 8.26131 15.0769 8.38262C15.1272 8.50394 15.2009 8.61417 15.2937 8.70702L17.5867 11H10.0007C9.7355 11 9.48115 11.1054 9.29362 11.2929C9.10609 11.4804 9.00073 11.7348 9.00073 12C9.00073 12.2652 9.10609 12.5195 9.29362 12.7071C9.48115 12.8946 9.7355 13 10.0007 13H17.5867L15.2937 15.293C15.2009 15.3858 15.1272 15.496 15.0769 15.6173C15.0267 15.7387 15.0008 15.8687 15.0008 16C15.0008 16.1313 15.0267 16.2613 15.0769 16.3826C15.1272 16.504 15.2009 16.6142 15.2937 16.707C15.3866 16.7999 15.4968 16.8735 15.6181 16.9238C15.7394 16.974 15.8694 16.9999 16.0007 16.9999C16.132 16.9999 16.2621 16.974 16.3834 16.9238C16.5047 16.8735 16.6149 16.7999 16.7078 16.707L20.7069 12.7078C20.7999 12.6146 20.8736 12.5039 20.9236 12.3821V12.3821Z" fill="#262626" stroke="white" stroke-width="0.5"/>
</g>
</g>
</g>
</svg>
