<svg width="24" height="24" viewBox="0 0 24 24" fill="none" xmlns="http://www.w3.org/2000/svg">
<path d="M9.61449 3.2653V3.26602C7.40649 7.17002 3.44213 14.1788 1.26031 18.0377C0.780311 18.8849 0.788311 19.9249 1.27849 20.7664C1.77013 21.6086 2.67122 22.1257 3.64504 22.1257H20.3541C21.3287 22.1257 22.2298 21.6086 22.7207 20.7664C23.2123 19.9249 23.2189 18.8849 22.7389 18.0369C20.557 14.1788 16.5927 7.17002 14.3847 3.26602V3.2653C13.8981 2.40566 12.9876 1.87402 11.9999 1.87402C11.0123 1.87402 10.101 2.40566 9.61449 3.2653ZM11.197 4.1613C11.3607 3.87184 11.6676 3.69221 11.9999 3.69221C12.3323 3.69221 12.6385 3.87184 12.8021 4.1613C15.0101 8.0653 18.9745 15.0733 21.1563 18.9322C21.1563 18.9322 21.1563 18.9329 21.157 18.9329C21.3178 19.2173 21.3156 19.5664 21.1505 19.8493C21.1505 19.85 21.1505 19.85 21.1498 19.8508C20.9847 20.1337 20.6821 20.3075 20.3541 20.3075H3.64504C3.31777 20.3075 3.01449 20.1337 2.8494 19.8508C2.8494 19.85 2.8494 19.85 2.8494 19.85C2.68431 19.5671 2.6814 19.218 2.84286 18.9329V18.9322C5.02467 15.0733 8.98904 8.0653 11.197 4.1613ZM12.1316 16.0064C12.6334 16.0064 13.0407 16.4137 13.0407 16.9155C13.0407 17.4173 12.6334 17.8246 12.1316 17.8246C11.6298 17.8246 11.2225 17.4173 11.2225 16.9155C11.2225 16.4137 11.6298 16.0064 12.1316 16.0064ZM11.2145 9.71184V14.1882C11.2145 14.69 11.6218 15.0973 12.1236 15.0973C12.6254 15.0973 13.0327 14.69 13.0327 14.1882V9.71184C13.0327 9.21002 12.6254 8.80275 12.1236 8.80275C11.6218 8.80275 11.2145 9.21002 11.2145 9.71184Z" fill="#262626" stroke="white" stroke-width="0.2"/>
</svg>
