<svg width="24" height="24" viewBox="0 0 24 24" fill="none" xmlns="http://www.w3.org/2000/svg">
<path d="M9.61455 3.26554V3.26627C7.40655 7.17027 3.44219 14.179 1.26037 18.0379C0.780372 18.8852 0.788372 19.9252 1.27855 20.7666C1.77019 21.6088 2.67128 22.1259 3.6451 22.1259H20.3542C21.3287 22.1259 22.2298 21.6088 22.7207 20.7666C23.2124 19.9252 23.2189 18.8852 22.7389 18.0372C20.5571 14.179 16.5927 7.17027 14.3847 3.26627V3.26554C13.8982 2.4059 12.9876 1.87427 12 1.87427C11.0124 1.87427 10.1011 2.4059 9.61455 3.26554ZM11.1971 4.16154C11.3607 3.87209 11.6676 3.69245 12 3.69245C12.3324 3.69245 12.6386 3.87209 12.8022 4.16154C15.0102 8.06554 18.9746 15.0735 21.1564 18.9325C21.1564 18.9325 21.1564 18.9332 21.1571 18.9332C21.3178 19.2175 21.3156 19.5666 21.1506 19.8495C21.1506 19.8503 21.1506 19.8503 21.1498 19.851C20.9847 20.1339 20.6822 20.3077 20.3542 20.3077H3.6451C3.31783 20.3077 3.01455 20.1339 2.84946 19.851C2.84946 19.8503 2.84946 19.8503 2.84946 19.8503C2.68437 19.5674 2.68146 19.2183 2.84292 18.9332V18.9325C5.02474 15.0735 8.9891 8.06554 11.1971 4.16154ZM12.1316 16.0066C12.6335 16.0066 13.0407 16.4139 13.0407 16.9157C13.0407 17.4175 12.6335 17.8248 12.1316 17.8248C11.6298 17.8248 11.2226 17.4175 11.2226 16.9157C11.2226 16.4139 11.6298 16.0066 12.1316 16.0066ZM11.2146 9.71209V14.1885C11.2146 14.6903 11.6218 15.0975 12.1236 15.0975C12.6255 15.0975 13.0327 14.6903 13.0327 14.1885V9.71209C13.0327 9.21027 12.6255 8.803 12.1236 8.803C11.6218 8.803 11.2146 9.21027 11.2146 9.71209Z" fill="#FA383E" stroke="white" stroke-width="0.2"/>
</svg>
