<svg width="24" height="24" viewBox="0 0 24 24" fill="none" xmlns="http://www.w3.org/2000/svg">
<path d="M15.8401 22.25H8.16009C7.39171 22.2389 6.65584 21.9381 6.09963 21.4079C5.54343 20.8776 5.20788 20.157 5.16009 19.39L4.25009 5.55C4.24542 5.44966 4.2607 5.34938 4.29502 5.25498C4.32935 5.16057 4.38206 5.07391 4.45009 5C4.52017 4.9234 4.60503 4.86177 4.69954 4.81881C4.79406 4.77584 4.89629 4.75244 5.00009 4.75H19.0001C19.1029 4.74977 19.2047 4.7707 19.2991 4.81148C19.3936 4.85226 19.4786 4.91202 19.5489 4.98704C19.6192 5.06207 19.6734 5.15077 19.708 5.24761C19.7426 5.34446 19.7569 5.44739 19.7501 5.55L18.8801 19.39C18.8318 20.1638 18.4906 20.8902 17.9259 21.4214C17.3612 21.9527 16.6154 22.249 15.8401 22.25ZM5.84009 6.25L6.61009 19.3C6.63553 19.6935 6.80999 20.0625 7.09797 20.3319C7.38594 20.6013 7.76576 20.7508 8.16009 20.75H15.8401C16.2337 20.7485 16.6122 20.5982 16.8997 20.3292C17.1872 20.0603 17.3623 19.6927 17.3901 19.3L18.2001 6.3L5.84009 6.25Z" fill="#262626"/>
<path d="M21 6.25H3C2.80109 6.25 2.61032 6.17098 2.46967 6.03033C2.32902 5.88968 2.25 5.69891 2.25 5.5C2.25 5.30109 2.32902 5.11032 2.46967 4.96967C2.61032 4.82902 2.80109 4.75 3 4.75H21C21.1989 4.75 21.3897 4.82902 21.5303 4.96967C21.671 5.11032 21.75 5.30109 21.75 5.5C21.75 5.69891 21.671 5.88968 21.5303 6.03033C21.3897 6.17098 21.1989 6.25 21 6.25Z" fill="#262626"/>
<path d="M15 6.25H9C8.80189 6.24741 8.61263 6.16756 8.47253 6.02747C8.33244 5.88737 8.25259 5.69811 8.25 5.5V3.7C8.26268 3.18682 8.47219 2.69816 8.83518 2.33518C9.19816 1.97219 9.68682 1.76268 10.2 1.75H13.8C14.3217 1.76305 14.8177 1.97951 15.182 2.35317C15.5463 2.72684 15.7502 3.22812 15.75 3.75V5.5C15.7474 5.69811 15.6676 5.88737 15.5275 6.02747C15.3874 6.16756 15.1981 6.24741 15 6.25ZM9.75 4.75H14.25V3.75C14.25 3.63065 14.2026 3.51619 14.1182 3.4318C14.0338 3.34741 13.9193 3.3 13.8 3.3H10.2C10.0807 3.3 9.96619 3.34741 9.8818 3.4318C9.79741 3.51619 9.75 3.63065 9.75 3.75V4.75Z" fill="#262626"/>
</svg>
